<?xml version="1.0" encoding="UTF-8"?>
<!DOCTYPE svg PUBLIC "-//W3C//DTD SVG 1.1//EN" "http://www.w3.org/Graphics/SVG/1.1/DTD/svg11.dtd">
<svg xmlns="http://www.w3.org/2000/svg" version="1.1" width="512px" height="512px" style="shape-rendering:geometricPrecision; text-rendering:geometricPrecision; image-rendering:optimizeQuality; fill-rule:evenodd; clip-rule:evenodd" xmlns:xlink="http://www.w3.org/1999/xlink">
<g><path style="opacity:0.251" fill="#f6e396" d="M 272.5,-0.5 C 275.167,-0.5 277.833,-0.5 280.5,-0.5C 281.473,1.06831 281.64,2.73498 281,4.5C 277.945,8.62449 274.445,12.2912 270.5,15.5C 270.351,14.448 270.517,13.448 271,12.5C 272.72,11.6159 273.886,10.2825 274.5,8.5C 279.813,4.99384 279.479,2.6605 273.5,1.5C 267.853,2.77411 262.52,4.94077 257.5,8C 254.469,10.0642 252.136,12.7309 250.5,16C 249.234,16.3095 248.067,16.8095 247,17.5C 245.704,21.6105 244.204,25.6105 242.5,29.5C 241.859,30.9935 240.859,31.9935 239.5,32.5C 241.803,20.221 248.303,10.8876 259,4.5C 263.279,1.91076 267.779,0.244093 272.5,-0.5 Z"/></g>
<g><path style="opacity:0.165" fill="#f8e696" d="M 298.5,23.5 C 296.296,21.6385 293.629,20.6385 290.5,20.5C 283.611,22.2951 276.944,24.2951 270.5,26.5C 270.577,25.2502 271.244,24.4169 272.5,24C 277.387,21.8134 282.387,19.8134 287.5,18C 291.167,17.3333 294.833,17.3333 298.5,18C 299.807,19.9435 299.807,21.7768 298.5,23.5 Z"/></g>
<g><path style="opacity:0.039" fill="#f6e196" d="M 231.5,28.5 C 230.39,25.1883 229.056,21.855 227.5,18.5C 226.28,17.2889 225.113,17.2889 224,18.5C 223.439,20.7254 222.439,22.7254 221,24.5C 220.588,32.742 220.421,40.742 220.5,48.5C 219.778,48.0825 219.278,47.4158 219,46.5C 217.586,36.147 218.586,26.147 222,16.5C 223.051,14.3732 224.551,12.7065 226.5,11.5C 227.672,11.9186 228.672,12.5853 229.5,13.5C 231.042,18.3771 231.709,23.3771 231.5,28.5 Z"/></g>
<g><path style="opacity:0.039" fill="#f7dc79" d="M 274.5,8.5 C 273.886,10.2825 272.72,11.6159 271,12.5C 270.517,13.448 270.351,14.448 270.5,15.5C 267.641,21.3794 264.307,27.0461 260.5,32.5C 260.667,32.8333 260.833,33.1667 261,33.5C 263.743,30.5498 266.91,28.2164 270.5,26.5C 266.779,32.3889 261.946,37.0555 256,40.5C 255.333,38.5 255.333,36.5 256,34.5C 259.967,27.0382 264.133,19.7049 268.5,12.5C 270.264,10.7224 272.264,9.38905 274.5,8.5 Z"/></g>
<g><path style="opacity:1" fill="#f5c036" d="M 274.5,8.5 C 272.264,9.38905 270.264,10.7224 268.5,12.5C 264.133,19.7049 259.967,27.0382 256,34.5C 255.333,36.5 255.333,38.5 256,40.5C 261.946,37.0555 266.779,32.3889 270.5,26.5C 276.944,24.2951 283.611,22.2951 290.5,20.5C 293.629,20.6385 296.296,21.6385 298.5,23.5C 298.167,24.5 297.5,25.1667 296.5,25.5C 294.875,24.6749 293.208,25.0082 291.5,26.5C 284.955,32.2102 278.955,38.3769 273.5,45C 272.167,45.3333 270.833,45.6667 269.5,46C 266.684,48.6502 264.018,51.4836 261.5,54.5C 259.841,55.9702 257.841,56.6369 255.5,56.5C 247.215,54.9089 239.048,55.2422 231,57.5C 228.182,57.0881 225.682,56.0881 223.5,54.5C 221.299,44.1935 221.132,33.8602 223,23.5C 224.171,21.3843 225.671,20.7176 227.5,21.5C 230.564,30.9896 233.564,40.4896 236.5,50C 237.449,50.6172 238.282,50.4506 239,49.5C 239.815,44.6478 239.648,39.9811 238.5,35.5C 238.263,34.209 238.596,33.209 239.5,32.5C 240.859,31.9935 241.859,30.9935 242.5,29.5C 244.204,25.6105 245.704,21.6105 247,17.5C 248.067,16.8095 249.234,16.3095 250.5,16C 252.136,12.7309 254.469,10.0642 257.5,8C 262.52,4.94077 267.853,2.77411 273.5,1.5C 279.479,2.6605 279.813,4.99384 274.5,8.5 Z"/></g>
<g><path style="opacity:0.2" fill="#f3d877" d="M 231.5,28.5 C 232.117,28.6107 232.617,28.944 233,29.5C 233.326,34.1457 234.66,38.4791 237,42.5C 237.186,39.9644 237.686,37.631 238.5,35.5C 239.648,39.9811 239.815,44.6478 239,49.5C 238.282,50.4506 237.449,50.6172 236.5,50C 233.564,40.4896 230.564,30.9896 227.5,21.5C 225.671,20.7176 224.171,21.3843 223,23.5C 221.132,33.8602 221.299,44.1935 223.5,54.5C 221.461,53.089 220.461,51.089 220.5,48.5C 220.421,40.742 220.588,32.742 221,24.5C 222.439,22.7254 223.439,20.7254 224,18.5C 225.113,17.2889 226.28,17.2889 227.5,18.5C 229.056,21.855 230.39,25.1883 231.5,28.5 Z"/></g>
<g><path style="opacity:1" fill="#f3d764" d="M 296.5,25.5 C 287.009,36.4866 276.342,46.3199 264.5,55C 265.094,55.4643 265.761,55.631 266.5,55.5C 266.5,57.1667 266.5,58.8333 266.5,60.5C 275.042,60.1751 283.376,61.3418 291.5,64C 299.079,67.9727 307.079,70.9727 315.5,73C 323.383,77.1958 331.049,81.8625 338.5,87C 340.913,91.2515 343.913,95.0848 347.5,98.5C 344.588,96.9337 341.921,94.9337 339.5,92.5C 338.754,91.2638 338.421,89.9305 338.5,88.5C 333.899,87.0856 329.899,84.5856 326.5,81C 321.129,81.6479 317.129,79.6479 314.5,75C 308.243,73.6308 302.243,71.6308 296.5,69C 289.946,68.4735 283.78,66.6402 278,63.5C 277.667,63.8333 277.333,64.1667 277,64.5C 272.705,63.7034 268.538,62.5367 264.5,61C 262.085,59.5347 261.085,57.368 261.5,54.5C 264.018,51.4836 266.684,48.6502 269.5,46C 270.833,45.6667 272.167,45.3333 273.5,45C 278.955,38.3769 284.955,32.2102 291.5,26.5C 293.208,25.0082 294.875,24.6749 296.5,25.5 Z"/></g>
<g><path style="opacity:1" fill="#fadb56" d="M 223.5,55.5 C 223.5,55.1667 223.5,54.8333 223.5,54.5C 225.682,56.0881 228.182,57.0881 231,57.5C 239.048,55.2422 247.215,54.9089 255.5,56.5C 257.841,56.6369 259.841,55.9702 261.5,54.5C 261.085,57.368 262.085,59.5347 264.5,61C 268.538,62.5367 272.705,63.7034 277,64.5C 277.333,64.1667 277.667,63.8333 278,63.5C 283.78,66.6402 289.946,68.4735 296.5,69C 302.243,71.6308 308.243,73.6308 314.5,75C 317.129,79.6479 321.129,81.6479 326.5,81C 329.899,84.5856 333.899,87.0856 338.5,88.5C 338.421,89.9305 338.754,91.2638 339.5,92.5C 341.921,94.9337 344.588,96.9337 347.5,98.5C 349.776,98.7565 350.943,100.09 351,102.5C 355.365,106.367 359.532,110.367 363.5,114.5C 364.167,114.5 364.5,114.833 364.5,115.5C 363.876,115.917 363.543,116.584 363.5,117.5C 364.697,120.089 365.697,122.756 366.5,125.5C 377.937,145.708 386.604,167.041 392.5,189.5C 387.112,177.761 382.279,165.761 378,153.5C 375.929,151.088 373.596,149.088 371,147.5C 371.253,144.867 371.253,142.2 371,139.5C 369.711,134.093 366.878,129.76 362.5,126.5C 362.167,127.833 361.833,129.167 361.5,130.5C 363.565,134.437 364.565,138.771 364.5,143.5C 359.833,143.5 355.167,143.5 350.5,143.5C 350.334,149.509 350.501,155.509 351,161.5C 353.667,163.5 356.333,165.5 359,167.5C 359.667,172.5 359.667,177.5 359,182.5C 357.107,186.59 355.941,190.923 355.5,195.5C 356.309,197.071 356.643,198.738 356.5,200.5C 351.712,199.877 349.879,197.21 351,192.5C 355.422,189.619 355.422,186.619 351,183.5C 350.505,181.527 350.338,179.527 350.5,177.5C 351.5,177.5 352.5,177.5 353.5,177.5C 353.5,173.833 353.5,170.167 353.5,166.5C 351.167,166.5 348.833,166.5 346.5,166.5C 346.039,171.093 343.539,173.76 339,174.5C 338.821,177.553 338.321,180.553 337.5,183.5C 337.167,181.5 336.833,179.5 336.5,177.5C 337.064,173.783 337.73,170.116 338.5,166.5C 332.8,168.264 327.133,170.264 321.5,172.5C 319.575,172.41 318.408,171.41 318,169.5C 318.083,172.119 318.25,174.786 318.5,177.5C 320.661,177.826 322.494,178.826 324,180.5C 324.54,183.361 325.54,186.028 327,188.5C 327.483,187.552 327.649,186.552 327.5,185.5C 328.552,185.351 329.552,185.517 330.5,186C 332.043,187.714 333.71,189.214 335.5,190.5C 338.449,189.698 341.449,189.364 344.5,189.5C 344.5,196.5 344.5,203.5 344.5,210.5C 342.5,210.5 340.5,210.5 338.5,210.5C 338.827,205.456 338.494,200.456 337.5,195.5C 336.991,199.864 335.991,204.03 334.5,208C 334.759,209.261 335.426,210.261 336.5,211C 334.377,212.194 332.043,212.86 329.5,213C 330.257,214.512 331.257,215.846 332.5,217C 329.243,220.088 325.576,222.588 321.5,224.5C 320.353,224.182 319.519,223.516 319,222.5C 315.612,224.728 312.112,226.728 308.5,228.5C 303.761,226.851 298.761,225.851 293.5,225.5C 293.429,220.879 291.095,218.046 286.5,217C 283.753,210.056 281.587,202.89 280,195.5C 279.667,195.167 279.333,194.833 279,194.5C 278.002,197.028 277.169,197.028 276.5,194.5C 276.722,192.945 277.389,191.611 278.5,190.5C 276.647,189.24 274.814,189.24 273,190.5C 272.829,195.533 272.329,200.533 271.5,205.5C 268.746,203.394 265.746,201.728 262.5,200.5C 261.069,200.977 259.736,201.643 258.5,202.5C 259.463,205.283 260.63,207.95 262,210.5C 265.074,212.071 267.24,214.404 268.5,217.5C 275.082,219.965 277.249,224.632 275,231.5C 271.642,234.358 268.142,237.025 264.5,239.5C 263.614,240.325 263.281,241.325 263.5,242.5C 262.448,242.351 261.448,242.517 260.5,243C 256.873,247.476 252.206,249.143 246.5,248C 242.391,246.064 238.391,243.897 234.5,241.5C 232.139,236.87 228.639,233.204 224,230.5C 223.692,231.308 223.192,231.975 222.5,232.5C 218.407,225.328 218.74,218.495 223.5,212C 223.167,211.667 222.833,211.333 222.5,211C 224.911,209.417 227.578,208.417 230.5,208C 231.337,206.989 231.67,205.822 231.5,204.5C 230.5,204.5 229.5,204.5 228.5,204.5C 228.5,205.5 228.5,206.5 228.5,207.5C 225.495,207.75 223.662,206.417 223,203.5C 222.667,204.167 222.333,204.833 222,205.5C 221.667,202.167 221.333,198.833 221,195.5C 218.621,192.989 217.455,193.656 217.5,197.5C 219.235,204.755 218.568,211.755 215.5,218.5C 213.904,216.136 212.738,213.47 212,210.5C 210.883,210.335 209.716,210.002 208.5,209.5C 208.406,211.239 208.239,213.239 208,215.5C 206.024,216.543 205.524,217.877 206.5,219.5C 205.5,222.167 204.5,222.167 203.5,219.5C 202.053,221.403 200.386,223.07 198.5,224.5C 195.25,224.192 191.917,224.025 188.5,224C 187.142,223.066 185.808,222.232 184.5,221.5C 195.335,223.501 202.169,219.167 205,208.5C 206.299,202.881 206.632,197.214 206,191.5C 204.042,186.41 201.208,181.91 197.5,178C 190.594,175.822 183.928,176.322 177.5,179.5C 177.5,180.5 177.5,181.5 177.5,182.5C 174.708,182.452 172.875,183.785 172,186.5C 169.855,195.057 170.022,203.557 172.5,212C 174.037,214.038 175.37,216.205 176.5,218.5C 168.559,216.672 160.559,215.005 152.5,213.5C 150.085,214.305 147.751,215.305 145.5,216.5C 144.035,215.391 143.035,215.891 142.5,218C 140.833,218.333 139.167,218.667 137.5,219C 138.061,220.566 137.394,221.899 135.5,223C 133.19,223.497 130.857,223.663 128.5,223.5C 128.5,221.833 128.5,220.167 128.5,218.5C 127.5,218.5 126.5,218.5 125.5,218.5C 125.5,216.5 125.5,214.5 125.5,212.5C 130.153,211.673 132.486,208.84 132.5,204C 139.5,203.667 146.5,203.333 153.5,203C 153.043,202.586 152.709,202.086 152.5,201.5C 154.331,197.759 154.997,193.759 154.5,189.5C 150.774,189.823 147.107,189.489 143.5,188.5C 146.659,185.066 150.159,184.733 154,187.5C 154.667,184.833 154.667,182.167 154,179.5C 152.307,180.184 150.807,181.184 149.5,182.5C 147.322,181.343 145.322,180.01 143.5,178.5C 147.122,177.675 150.789,177.175 154.5,177C 153.167,175.667 153.167,174.333 154.5,173C 150.848,172.501 147.182,172.335 143.5,172.5C 143.5,168.5 143.5,164.5 143.5,160.5C 139.5,160.5 135.5,160.5 131.5,160.5C 131.5,158.5 131.5,156.5 131.5,154.5C 130.5,154.5 129.5,154.5 128.5,154.5C 128.5,153.5 128.5,152.5 128.5,151.5C 126.833,151.5 125.167,151.5 123.5,151.5C 123.5,152.5 123.5,153.5 123.5,154.5C 121.473,154.662 119.473,154.495 117.5,154C 117.957,153.586 118.291,153.086 118.5,152.5C 117.271,151.719 115.938,151.219 114.5,151C 114.957,150.586 115.291,150.086 115.5,149.5C 114.811,147.556 114.311,145.556 114,143.5C 112.121,145.527 110.954,147.86 110.5,150.5C 108.089,150.137 106.589,151.137 106,153.5C 103.937,162.075 101.104,170.408 97.5,178.5C 97.6667,179.167 97.8333,179.833 98,180.5C 98.6543,179.304 99.1543,179.304 99.5,180.5C 96.6071,183.619 94.7738,187.286 94,191.5C 92.0155,200.391 90.6822,209.391 90,218.5C 88.1129,220.026 87.1129,222.026 87,224.5C 84.739,238.236 83.239,251.903 82.5,265.5C 82.2099,252.76 83.0432,240.093 85,227.5C 89.3686,210.325 92.702,192.992 95,175.5C 96.436,171.525 98.436,167.858 101,164.5C 102.885,156.96 105.385,149.626 108.5,142.5C 112.494,137.666 116.327,132.666 120,127.5C 122.813,118.852 128.313,112.519 136.5,108.5C 136.977,107.069 137.643,105.736 138.5,104.5C 144.298,98.8723 150.298,93.3723 156.5,88C 162.764,86.1366 168.098,82.8033 172.5,78C 176.732,76.0496 181.066,74.383 185.5,73C 186.579,70.957 188.246,69.6237 190.5,69C 196.681,67.3843 202.681,65.3843 208.5,63C 213.469,61.8411 218.469,60.8411 223.5,60C 224.801,58.3845 224.801,56.8845 223.5,55.5 Z"/></g>
<g><path style="opacity:0.271" fill="#f4e691" d="M 266.5,55.5 C 308.498,59.6494 340.831,79.316 363.5,114.5C 359.532,110.367 355.365,106.367 351,102.5C 350.943,100.09 349.776,98.7565 347.5,98.5C 343.913,95.0848 340.913,91.2515 338.5,87C 331.049,81.8625 323.383,77.1958 315.5,73C 307.079,70.9727 299.079,67.9727 291.5,64C 283.376,61.3418 275.042,60.1751 266.5,60.5C 266.5,58.8333 266.5,57.1667 266.5,55.5 Z"/></g>
<g><path style="opacity:1" fill="#fbda54" d="M 176.5,218.5 C 179.535,218.539 182.202,219.539 184.5,221.5C 185.808,222.232 187.142,223.066 188.5,224C 191.917,224.025 195.25,224.192 198.5,224.5C 200.386,223.07 202.053,221.403 203.5,219.5C 204.5,222.167 205.5,222.167 206.5,219.5C 205.524,217.877 206.024,216.543 208,215.5C 208.239,213.239 208.406,211.239 208.5,209.5C 209.716,210.002 210.883,210.335 212,210.5C 212.738,213.47 213.904,216.136 215.5,218.5C 218.568,211.755 219.235,204.755 217.5,197.5C 217.455,193.656 218.621,192.989 221,195.5C 221.333,198.833 221.667,202.167 222,205.5C 222.333,204.833 222.667,204.167 223,203.5C 223.662,206.417 225.495,207.75 228.5,207.5C 228.5,206.5 228.5,205.5 228.5,204.5C 229.5,204.5 230.5,204.5 231.5,204.5C 231.67,205.822 231.337,206.989 230.5,208C 227.578,208.417 224.911,209.417 222.5,211C 222.833,211.333 223.167,211.667 223.5,212C 218.74,218.495 218.407,225.328 222.5,232.5C 223.192,231.975 223.692,231.308 224,230.5C 228.639,233.204 232.139,236.87 234.5,241.5C 238.391,243.897 242.391,246.064 246.5,248C 252.206,249.143 256.873,247.476 260.5,243C 261.448,242.517 262.448,242.351 263.5,242.5C 263.281,241.325 263.614,240.325 264.5,239.5C 268.142,237.025 271.642,234.358 275,231.5C 277.249,224.632 275.082,219.965 268.5,217.5C 267.24,214.404 265.074,212.071 262,210.5C 260.63,207.95 259.463,205.283 258.5,202.5C 259.736,201.643 261.069,200.977 262.5,200.5C 265.746,201.728 268.746,203.394 271.5,205.5C 272.329,200.533 272.829,195.533 273,190.5C 274.814,189.24 276.647,189.24 278.5,190.5C 277.389,191.611 276.722,192.945 276.5,194.5C 277.169,197.028 278.002,197.028 279,194.5C 279.333,194.833 279.667,195.167 280,195.5C 281.587,202.89 283.753,210.056 286.5,217C 291.095,218.046 293.429,220.879 293.5,225.5C 298.761,225.851 303.761,226.851 308.5,228.5C 306.076,229.03 303.743,229.864 301.5,231C 302.328,231.915 303.328,232.581 304.5,233C 302.302,235.583 300.469,238.416 299,241.5C 298.333,242.833 297.667,242.833 297,241.5C 295.748,244.014 295.248,246.68 295.5,249.5C 293.533,249.261 291.699,249.594 290,250.5C 289.012,260.873 287.845,260.707 286.5,250C 281.5,249.333 276.5,249.333 271.5,250C 271.818,253.842 269.818,255.676 265.5,255.5C 265.5,254.5 265.5,253.5 265.5,252.5C 260.786,252.173 256.12,252.507 251.5,253.5C 251.709,254.086 252.043,254.586 252.5,255C 250.619,257.344 248.286,258.844 245.5,259.5C 243.129,257.972 240.629,256.639 238,255.5C 235.438,256.388 233.104,257.721 231,259.5C 228.736,259.146 226.902,258.146 225.5,256.5C 228.812,255.209 229.979,252.875 229,249.5C 220.055,250.085 210.888,250.085 201.5,249.5C 203.07,255.936 202.737,262.27 200.5,268.5C 196.893,269.489 193.226,269.823 189.5,269.5C 189.5,272.5 189.5,275.5 189.5,278.5C 185.833,278.5 182.167,278.5 178.5,278.5C 178.5,279.5 178.5,280.5 178.5,281.5C 177.07,281.421 175.736,281.754 174.5,282.5C 173.513,285.768 173.18,289.102 173.5,292.5C 178.833,292.5 184.167,292.5 189.5,292.5C 189.203,296.767 189.536,300.934 190.5,305C 189.833,306 189.167,307 188.5,308C 190.439,308.908 191.439,310.408 191.5,312.5C 188.165,315.601 184.665,318.601 181,321.5C 179.434,320.939 178.101,321.606 177,323.5C 176.51,324.793 176.343,326.127 176.5,327.5C 174.326,327.92 172.326,327.92 170.5,327.5C 168.062,329.938 168.062,332.438 170.5,335C 169.688,338.964 167.688,342.131 164.5,344.5C 162.665,349.54 159.832,353.873 156,357.5C 155.501,361.514 155.667,365.514 156.5,369.5C 155.721,372.433 154.721,375.266 153.5,378C 153.648,379.256 153.982,380.423 154.5,381.5C 152.518,381.005 150.518,380.505 148.5,380C 144.572,376.577 140.239,373.743 135.5,371.5C 132.573,367.401 128.906,364.234 124.5,362C 115.607,351.698 108.107,340.531 102,328.5C 100.488,327.743 99.1545,326.743 98,325.5C 94.7247,319.493 92.3914,313.16 91,306.5C 90.3333,305.167 89.3333,304.167 88,303.5C 85.2174,293.357 83.5508,283.023 83,272.5C 81.8549,271.364 80.6883,270.364 79.5,269.5C 81.9118,269.306 82.9118,267.973 82.5,265.5C 83.239,251.903 84.739,238.236 87,224.5C 87.1129,222.026 88.1129,220.026 90,218.5C 90.6822,209.391 92.0155,200.391 94,191.5C 94.7738,187.286 96.6071,183.619 99.5,180.5C 99.1543,179.304 98.6543,179.304 98,180.5C 97.8333,179.833 97.6667,179.167 97.5,178.5C 101.104,170.408 103.937,162.075 106,153.5C 106.589,151.137 108.089,150.137 110.5,150.5C 110.954,147.86 112.121,145.527 114,143.5C 114.311,145.556 114.811,147.556 115.5,149.5C 115.291,150.086 114.957,150.586 114.5,151C 115.938,151.219 117.271,151.719 118.5,152.5C 118.291,153.086 117.957,153.586 117.5,154C 119.473,154.495 121.473,154.662 123.5,154.5C 123.5,153.5 123.5,152.5 123.5,151.5C 125.167,151.5 126.833,151.5 128.5,151.5C 128.5,152.5 128.5,153.5 128.5,154.5C 129.5,154.5 130.5,154.5 131.5,154.5C 131.5,156.5 131.5,158.5 131.5,160.5C 135.5,160.5 139.5,160.5 143.5,160.5C 143.5,164.5 143.5,168.5 143.5,172.5C 147.182,172.335 150.848,172.501 154.5,173C 153.167,174.333 153.167,175.667 154.5,177C 150.789,177.175 147.122,177.675 143.5,178.5C 145.322,180.01 147.322,181.343 149.5,182.5C 150.807,181.184 152.307,180.184 154,179.5C 154.667,182.167 154.667,184.833 154,187.5C 150.159,184.733 146.659,185.066 143.5,188.5C 147.107,189.489 150.774,189.823 154.5,189.5C 154.997,193.759 154.331,197.759 152.5,201.5C 152.709,202.086 153.043,202.586 153.5,203C 146.5,203.333 139.5,203.667 132.5,204C 132.486,208.84 130.153,211.673 125.5,212.5C 125.5,214.5 125.5,216.5 125.5,218.5C 126.5,218.5 127.5,218.5 128.5,218.5C 128.5,220.167 128.5,221.833 128.5,223.5C 130.857,223.663 133.19,223.497 135.5,223C 137.394,221.899 138.061,220.566 137.5,219C 139.167,218.667 140.833,218.333 142.5,218C 143.035,215.891 144.035,215.391 145.5,216.5C 147.751,215.305 150.085,214.305 152.5,213.5C 160.559,215.005 168.559,216.672 176.5,218.5 Z"/></g>
<g><path style="opacity:1" fill="#ead77c" d="M 184.5,221.5 C 182.202,219.539 179.535,218.539 176.5,218.5C 175.37,216.205 174.037,214.038 172.5,212C 170.022,203.557 169.855,195.057 172,186.5C 172.875,183.785 174.708,182.452 177.5,182.5C 177.5,181.5 177.5,180.5 177.5,179.5C 183.928,176.322 190.594,175.822 197.5,178C 201.208,181.91 204.042,186.41 206,191.5C 206.632,197.214 206.299,202.881 205,208.5C 202.169,219.167 195.335,223.501 184.5,221.5 Z"/></g>
<g><path style="opacity:1" fill="#e7d27a" d="M 297.5,180.5 C 302.43,180.197 307.263,180.531 312,181.5C 312.927,186.091 315.594,189.091 320,190.5C 325.134,204.914 321.3,216.081 308.5,224C 300.357,225.929 294.691,223.095 291.5,215.5C 290.675,214.614 289.675,214.281 288.5,214.5C 288.26,206.125 288.593,197.792 289.5,189.5C 290.5,189.5 291.5,189.5 292.5,189.5C 292.861,185.778 294.528,182.778 297.5,180.5 Z"/></g>
<g><path style="opacity:0.71" fill="#f3de83" d="M 364.5,115.5 C 386.985,149.773 400.319,187.606 404.5,229C 405.929,242.523 406.262,256.023 405.5,269.5C 408.446,270.655 411.446,270.821 414.5,270C 417.74,268.6 421.073,267.433 424.5,266.5C 423.039,269.255 420.705,271.088 417.5,272C 414,272.5 410.5,273 407,273.5C 404.624,273.315 402.791,272.315 401.5,270.5C 402.444,243.411 399.944,216.745 394,190.5C 393.617,189.944 393.117,189.611 392.5,189.5C 386.604,167.041 377.937,145.708 366.5,125.5C 365.697,122.756 364.697,120.089 363.5,117.5C 363.543,116.584 363.876,115.917 364.5,115.5 Z"/></g>
<g><path style="opacity:1" fill="#60502f" d="M 192.5,180.5 C 189.059,180.301 185.726,180.801 182.5,182C 181.262,182.69 181.262,183.19 182.5,183.5C 180.018,185.503 179.018,188.169 179.5,191.5C 178.849,190.909 178.182,190.243 177.5,189.5C 176.824,190.602 176.158,191.602 175.5,192.5C 176.895,182.072 182.561,178.072 192.5,180.5 Z"/></g>
<g><path style="opacity:1" fill="#e9e4e2" d="M 182.5,183.5 C 188.709,184.109 190.042,187.109 186.5,192.5C 184.604,193.466 182.604,193.799 180.5,193.5C 180.167,192.833 179.833,192.167 179.5,191.5C 179.018,188.169 180.018,185.503 182.5,183.5 Z"/></g>
<g><path style="opacity:1" fill="#e9e5e1" d="M 304.5,190.5 C 305.886,197.618 302.886,200.784 295.5,200C 294.944,199.617 294.611,199.117 294.5,198.5C 293.736,189.891 297.07,187.224 304.5,190.5 Z"/></g>
<g><path style="opacity:1" fill="#150907" d="M 313.5,188.5 C 315.262,189.262 316.262,190.596 316.5,192.5C 316.544,196.686 316.877,200.853 317.5,205C 318.103,210.748 316.436,212.082 312.5,209C 307.643,208.693 302.81,208.193 298,207.5C 296.188,207.493 294.688,208.16 293.5,209.5C 293.167,207.667 292.833,205.833 292.5,204C 292.547,201.705 293.213,199.871 294.5,198.5C 294.611,199.117 294.944,199.617 295.5,200C 302.886,200.784 305.886,197.618 304.5,190.5C 304.62,189.414 305.287,188.747 306.5,188.5C 308.998,189.63 311.332,189.63 313.5,188.5 Z"/></g>
<g><path style="opacity:1" fill="#21120d" d="M 192.5,180.5 C 200.536,183.225 204.203,188.891 203.5,197.5C 203.718,201.839 202.718,205.839 200.5,209.5C 196.671,207.3 192.505,205.966 188,205.5C 183.679,205.483 180.679,207.483 179,211.5C 177.538,209.563 176.372,207.563 175.5,205.5C 174.264,201.299 174.264,196.965 175.5,192.5C 176.158,191.602 176.824,190.602 177.5,189.5C 178.182,190.243 178.849,190.909 179.5,191.5C 179.833,192.167 180.167,192.833 180.5,193.5C 182.604,193.799 184.604,193.466 186.5,192.5C 190.042,187.109 188.709,184.109 182.5,183.5C 181.262,183.19 181.262,182.69 182.5,182C 185.726,180.801 189.059,180.301 192.5,180.5 Z"/></g>
<g><path style="opacity:1" fill="#0c0404" d="M 180.5,193.5 C 186.136,196.089 189.136,194.255 189.5,188C 189.212,185.813 188.878,183.646 188.5,181.5C 193.075,180.343 195.742,182.01 196.5,186.5C 192.206,191.096 193.372,193.429 200,193.5C 201.606,197.45 201.773,201.45 200.5,205.5C 194.927,204.142 189.26,203.309 183.5,203C 182.284,201.26 180.618,200.26 178.5,200C 178.957,199.586 179.291,199.086 179.5,198.5C 177.721,196.807 177.221,194.807 178,192.5C 178.671,193.252 179.504,193.586 180.5,193.5 Z"/></g>
<g><path style="opacity:1" fill="#f87a13" d="M 271.5,221.5 C 272.833,223.167 272.833,224.833 271.5,226.5C 271.5,225.5 271.5,224.5 271.5,223.5C 257.179,222.758 242.846,222.425 228.5,222.5C 228.167,221.833 227.833,221.167 227.5,220.5C 229.334,218.495 231.001,216.328 232.5,214C 237.049,213.564 240.716,211.564 243.5,208C 247.775,205.716 251.775,206.05 255.5,209C 260.441,213.787 265.775,217.954 271.5,221.5 Z"/></g>
<g><path style="opacity:1" fill="#e88818" d="M 268.5,217.5 C 269.5,218.833 270.5,220.167 271.5,221.5C 265.775,217.954 260.441,213.787 255.5,209C 251.775,206.05 247.775,205.716 243.5,208C 240.716,211.564 237.049,213.564 232.5,214C 231.001,216.328 229.334,218.495 227.5,220.5C 225.195,222.045 224.862,224.045 226.5,226.5C 225.504,226.586 224.671,226.252 224,225.5C 223.505,223.527 223.338,221.527 223.5,219.5C 224.552,219.649 225.552,219.483 226.5,219C 228.571,215.797 230.904,212.797 233.5,210C 236.921,210.121 239.588,208.788 241.5,206C 247.572,203.583 253.239,204.249 258.5,208C 261.045,212.046 264.378,215.213 268.5,217.5 Z"/></g>
<g><path style="opacity:1" fill="#330f06" d="M 175.5,205.5 C 176.372,207.563 177.538,209.563 179,211.5C 180.679,207.483 183.679,205.483 188,205.5C 192.505,205.966 196.671,207.3 200.5,209.5C 198.854,212.81 196.52,215.477 193.5,217.5C 187.343,218.224 182.01,216.557 177.5,212.5C 176.883,212.389 176.383,212.056 176,211.5C 175.505,209.527 175.338,207.527 175.5,205.5 Z"/></g>
<g><path style="opacity:1" fill="#31150c" d="M 313.5,188.5 C 311.332,189.63 308.998,189.63 306.5,188.5C 305.287,188.747 304.62,189.414 304.5,190.5C 297.07,187.224 293.736,189.891 294.5,198.5C 293.213,199.871 292.547,201.705 292.5,204C 292.833,205.833 293.167,207.667 293.5,209.5C 294.688,208.16 296.188,207.493 298,207.5C 302.81,208.193 307.643,208.693 312.5,209C 316.436,212.082 318.103,210.748 317.5,205C 316.877,200.853 316.544,196.686 316.5,192.5C 317.222,192.918 317.722,193.584 318,194.5C 318.877,201.249 318.544,207.916 317,214.5C 310.54,222.544 303.207,223.544 295,217.5C 288.123,205.597 289.29,194.597 298.5,184.5C 302.459,183.34 306.459,183.173 310.5,184C 311.386,185.615 312.386,187.115 313.5,188.5 Z"/></g>
<g><path style="opacity:0.818" fill="#f3e085" d="M 223.5,55.5 C 224.801,56.8845 224.801,58.3845 223.5,60C 218.469,60.8411 213.469,61.8411 208.5,63C 202.681,65.3843 196.681,67.3843 190.5,69C 188.246,69.6237 186.579,70.957 185.5,73C 181.066,74.383 176.732,76.0496 172.5,78C 168.098,82.8033 162.764,86.1366 156.5,88C 150.298,93.3723 144.298,98.8723 138.5,104.5C 137.643,105.736 136.977,107.069 136.5,108.5C 128.313,112.519 122.813,118.852 120,127.5C 116.327,132.666 112.494,137.666 108.5,142.5C 105.385,149.626 102.885,156.96 101,164.5C 98.436,167.858 96.436,171.525 95,175.5C 92.702,192.992 89.3686,210.325 85,227.5C 83.0432,240.093 82.2099,252.76 82.5,265.5C 82.9118,267.973 81.9118,269.306 79.5,269.5C 77.7839,269.371 76.1172,269.038 74.5,268.5C 73.7886,266.799 72.4553,265.799 70.5,265.5C 70.4226,264.25 69.756,263.417 68.5,263C 68.7284,262.601 69.0618,262.435 69.5,262.5C 71.9366,262.886 73.9366,264.053 75.5,266C 76.7932,266.49 78.1266,266.657 79.5,266.5C 77.5605,213.245 90.7272,164.245 119,119.5C 136.206,96.4488 158.039,78.9488 184.5,67C 197.478,62.6773 210.478,58.844 223.5,55.5 Z"/></g>
<g><path style="opacity:1" fill="#76572b" d="M 177.5,212.5 C 182.01,216.557 187.343,218.224 193.5,217.5C 188.169,219.294 183.169,218.461 178.5,215C 177.748,214.329 177.414,213.496 177.5,212.5 Z"/></g>
<g><path style="opacity:1" fill="#da3003" d="M 228.5,222.5 C 242.846,222.425 257.179,222.758 271.5,223.5C 271.5,224.5 271.5,225.5 271.5,226.5C 270.833,226.833 270.167,227.167 269.5,227.5C 268.432,226.566 267.099,226.232 265.5,226.5C 265.5,227.5 265.5,228.5 265.5,229.5C 259.282,233.029 253.282,237.029 247.5,241.5C 242.568,240.402 239.401,237.402 238,232.5C 235.006,230.337 232.173,228.004 229.5,225.5C 228.873,224.583 228.539,223.583 228.5,222.5 Z"/></g>
<g><path style="opacity:1" fill="#c03f05" d="M 227.5,220.5 C 227.833,221.167 228.167,221.833 228.5,222.5C 228.539,223.583 228.873,224.583 229.5,225.5C 232.173,228.004 235.006,230.337 238,232.5C 239.401,237.402 242.568,240.402 247.5,241.5C 253.282,237.029 259.282,233.029 265.5,229.5C 265.5,228.5 265.5,227.5 265.5,226.5C 267.099,226.232 268.432,226.566 269.5,227.5C 263.753,232.554 257.753,237.387 251.5,242C 248.634,243.457 245.634,243.79 242.5,243C 237.663,236.997 232.33,231.497 226.5,226.5C 224.862,224.045 225.195,222.045 227.5,220.5 Z"/></g>
<g><path style="opacity:1" fill="#fbc853" d="M 154.5,216.5 C 159.536,216.588 164.536,217.088 169.5,218C 174.32,220.496 179.32,222.496 184.5,224C 187.39,225.938 190.056,228.105 192.5,230.5C 194.35,236.718 194.85,243.051 194,249.5C 187.266,259.618 177.766,264.618 165.5,264.5C 156.917,264.309 148.583,262.809 140.5,260C 122.908,248.092 122.241,235.425 138.5,222C 143.74,219.534 149.073,217.7 154.5,216.5 Z"/></g>
<g><path style="opacity:1" fill="#fbad58" d="M 155.5,220.5 C 165.69,219.566 175.023,221.9 183.5,227.5C 186.577,230.409 189.077,233.742 191,237.5C 191.854,241.625 191.52,245.625 190,249.5C 180.022,258.956 168.189,262.122 154.5,259C 150.071,258.319 145.737,257.319 141.5,256C 138.353,253.183 135.52,250.016 133,246.5C 132.374,243.137 132.041,239.804 132,236.5C 133.776,233.059 135.943,229.892 138.5,227C 144.421,225.263 150.088,223.097 155.5,220.5 Z"/></g>
<g><path style="opacity:1" fill="#fbda55" d="M 392.5,189.5 C 393.117,189.611 393.617,189.944 394,190.5C 399.944,216.745 402.444,243.411 401.5,270.5C 399.654,283.722 396.654,296.722 392.5,309.5C 388.05,314.978 385.217,321.312 384,328.5C 377.947,338.636 370.947,347.969 363,356.5C 361.991,358.025 361.491,359.692 361.5,361.5C 360.448,361.351 359.448,361.517 358.5,362C 352.639,368.278 346.305,374.112 339.5,379.5C 339.167,379.5 338.833,379.5 338.5,379.5C 338.5,378.833 338.5,378.167 338.5,377.5C 338.83,371.132 338.496,364.798 337.5,358.5C 334.462,353.089 331.962,347.422 330,341.5C 326.413,337.333 323.58,332.666 321.5,327.5C 318.581,326.143 317.081,323.81 317,320.5C 312.783,317.397 308.783,314.063 305,310.5C 296.484,305.575 287.817,300.908 279,296.5C 270.367,295.907 261.867,294.573 253.5,292.5C 241.983,292.695 230.317,294.862 218.5,299C 211.537,303.928 203.87,307.261 195.5,309C 193.65,309.69 192.316,310.856 191.5,312.5C 191.439,310.408 190.439,308.908 188.5,308C 189.167,307 189.833,306 190.5,305C 189.536,300.934 189.203,296.767 189.5,292.5C 184.167,292.5 178.833,292.5 173.5,292.5C 173.18,289.102 173.513,285.768 174.5,282.5C 175.736,281.754 177.07,281.421 178.5,281.5C 178.5,280.5 178.5,279.5 178.5,278.5C 182.167,278.5 185.833,278.5 189.5,278.5C 189.5,275.5 189.5,272.5 189.5,269.5C 193.226,269.823 196.893,269.489 200.5,268.5C 202.737,262.27 203.07,255.936 201.5,249.5C 210.888,250.085 220.055,250.085 229,249.5C 229.979,252.875 228.812,255.209 225.5,256.5C 226.902,258.146 228.736,259.146 231,259.5C 233.104,257.721 235.438,256.388 238,255.5C 240.629,256.639 243.129,257.972 245.5,259.5C 248.286,258.844 250.619,257.344 252.5,255C 252.043,254.586 251.709,254.086 251.5,253.5C 256.12,252.507 260.786,252.173 265.5,252.5C 265.5,253.5 265.5,254.5 265.5,255.5C 269.818,255.676 271.818,253.842 271.5,250C 276.5,249.333 281.5,249.333 286.5,250C 287.845,260.707 289.012,260.873 290,250.5C 291.699,249.594 293.533,249.261 295.5,249.5C 295.248,246.68 295.748,244.014 297,241.5C 297.667,242.833 298.333,242.833 299,241.5C 300.469,238.416 302.302,235.583 304.5,233C 303.328,232.581 302.328,231.915 301.5,231C 303.743,229.864 306.076,229.03 308.5,228.5C 312.112,226.728 315.612,224.728 319,222.5C 319.519,223.516 320.353,224.182 321.5,224.5C 325.576,222.588 329.243,220.088 332.5,217C 331.257,215.846 330.257,214.512 329.5,213C 332.043,212.86 334.377,212.194 336.5,211C 335.426,210.261 334.759,209.261 334.5,208C 335.991,204.03 336.991,199.864 337.5,195.5C 338.494,200.456 338.827,205.456 338.5,210.5C 340.5,210.5 342.5,210.5 344.5,210.5C 344.5,203.5 344.5,196.5 344.5,189.5C 341.449,189.364 338.449,189.698 335.5,190.5C 333.71,189.214 332.043,187.714 330.5,186C 329.552,185.517 328.552,185.351 327.5,185.5C 327.649,186.552 327.483,187.552 327,188.5C 325.54,186.028 324.54,183.361 324,180.5C 322.494,178.826 320.661,177.826 318.5,177.5C 318.25,174.786 318.083,172.119 318,169.5C 318.408,171.41 319.575,172.41 321.5,172.5C 327.133,170.264 332.8,168.264 338.5,166.5C 337.73,170.116 337.064,173.783 336.5,177.5C 336.833,179.5 337.167,181.5 337.5,183.5C 338.321,180.553 338.821,177.553 339,174.5C 343.539,173.76 346.039,171.093 346.5,166.5C 348.833,166.5 351.167,166.5 353.5,166.5C 353.5,170.167 353.5,173.833 353.5,177.5C 352.5,177.5 351.5,177.5 350.5,177.5C 350.338,179.527 350.505,181.527 351,183.5C 355.422,186.619 355.422,189.619 351,192.5C 349.879,197.21 351.712,199.877 356.5,200.5C 356.643,198.738 356.309,197.071 355.5,195.5C 355.941,190.923 357.107,186.59 359,182.5C 359.667,177.5 359.667,172.5 359,167.5C 356.333,165.5 353.667,163.5 351,161.5C 350.501,155.509 350.334,149.509 350.5,143.5C 355.167,143.5 359.833,143.5 364.5,143.5C 364.565,138.771 363.565,134.437 361.5,130.5C 361.833,129.167 362.167,127.833 362.5,126.5C 366.878,129.76 369.711,134.093 371,139.5C 371.253,142.2 371.253,144.867 371,147.5C 373.596,149.088 375.929,151.088 378,153.5C 382.279,165.761 387.112,177.761 392.5,189.5 Z"/></g>
<g><path style="opacity:1" fill="#f7b850" d="M 320.5,225.5 C 327.841,225.334 335.174,225.5 342.5,226C 348.721,227.247 354.555,229.414 360,232.5C 365.687,240.307 366.687,248.64 363,257.5C 359.028,260.463 355.028,263.463 351,266.5C 337.385,269.292 323.885,268.792 310.5,265C 304.942,258.413 302.442,250.913 303,242.5C 304.716,238.397 307.383,235.064 311,232.5C 311.483,231.552 311.649,230.552 311.5,229.5C 315.262,229.697 318.262,228.364 320.5,225.5 Z"/></g>
<g><path style="opacity:1" fill="#fbae57" d="M 328.5,228.5 C 335.175,228.334 341.842,228.5 348.5,229C 351.329,231.827 354.663,233.827 358.5,235C 361.153,238.471 363.153,242.304 364.5,246.5C 363.58,250.171 362.247,253.671 360.5,257C 357.074,258.238 355.408,257.071 355.5,253.5C 354.5,253.5 353.5,253.5 352.5,253.5C 351.758,256.809 350.091,259.643 347.5,262C 338.78,264.162 330.113,263.995 321.5,261.5C 320.228,261.57 319.062,261.903 318,262.5C 316.078,259.952 313.745,257.952 311,256.5C 304.357,247.066 306.357,239.733 317,234.5C 317.483,233.552 317.649,232.552 317.5,231.5C 321.397,230.945 325.063,229.945 328.5,228.5 Z"/></g>
<g><path style="opacity:0.278" fill="#f7d386" d="M 66.5,260.5 C 60.7502,259.647 58.4169,262.147 59.5,268C 59.5435,271.57 60.0435,275.07 61,278.5C 62.7921,281.391 64.2921,284.391 65.5,287.5C 64.5041,287.586 63.6708,287.252 63,286.5C 57.7448,279.025 56.0781,270.691 58,261.5C 60.6975,259.327 63.5308,258.994 66.5,260.5 Z"/></g>
<g><path style="opacity:0.363" fill="#edc86f" d="M 438.5,282.5 C 438.78,276.994 438.78,271.328 438.5,265.5C 437.452,264.617 436.285,263.95 435,263.5C 432.139,265.398 428.973,266.398 425.5,266.5C 427.478,263.988 430.145,262.488 433.5,262C 436.347,261.056 438.847,261.556 441,263.5C 442.241,270.225 441.407,276.558 438.5,282.5 Z"/></g>
<g><path style="opacity:1" fill="#faa508" d="M 429.5,288.5 C 427.746,291.26 425.412,293.26 422.5,294.5C 422.5,295.833 422.5,297.167 422.5,298.5C 426.116,299.524 429.616,300.857 433,302.5C 433.584,305.257 433.25,307.923 432,310.5C 431.583,311.756 430.75,312.423 429.5,312.5C 424.997,313.153 420.997,314.987 417.5,318C 411.972,320.434 406.305,320.934 400.5,319.5C 403.613,306.039 404.946,292.372 404.5,278.5C 406.359,278.539 407.692,277.706 408.5,276C 418.511,275.423 427.511,272.256 435.5,266.5C 436.086,266.709 436.586,267.043 437,267.5C 437.667,269.833 437.667,272.167 437,274.5C 434.744,279.348 432.244,284.015 429.5,288.5 Z"/></g>
<g><path style="opacity:1" fill="#f8db5e" d="M 338.5,377.5 C 336.198,366.588 332.864,355.922 328.5,345.5C 323.446,339.266 318.946,332.599 315,325.5C 310.5,321.667 306,317.833 301.5,314C 299.421,312.36 297.088,311.194 294.5,310.5C 293.682,308.892 293.015,307.225 292.5,305.5C 285.871,305.53 279.871,303.696 274.5,300C 262.638,297.672 250.638,297.005 238.5,298C 229.016,299.697 219.683,302.03 210.5,305C 208.649,306.684 206.982,308.517 205.5,310.5C 202.828,311.501 200.161,312.501 197.5,313.5C 193.542,316.851 189.376,319.851 185,322.5C 181.932,326.572 179.265,330.906 177,335.5C 173.667,339.5 170.333,343.5 167,347.5C 165.783,352.059 164.116,356.392 162,360.5C 160.501,368.495 159.501,376.495 159,384.5C 160.376,385.705 161.542,387.038 162.5,388.5C 159.851,386.86 157.184,385.193 154.5,383.5C 154.5,382.833 154.5,382.167 154.5,381.5C 153.982,380.423 153.648,379.256 153.5,378C 154.721,375.266 155.721,372.433 156.5,369.5C 155.667,365.514 155.501,361.514 156,357.5C 159.832,353.873 162.665,349.54 164.5,344.5C 167.688,342.131 169.688,338.964 170.5,335C 168.062,332.438 168.062,329.938 170.5,327.5C 172.326,327.92 174.326,327.92 176.5,327.5C 176.343,326.127 176.51,324.793 177,323.5C 178.101,321.606 179.434,320.939 181,321.5C 184.665,318.601 188.165,315.601 191.5,312.5C 192.316,310.856 193.65,309.69 195.5,309C 203.87,307.261 211.537,303.928 218.5,299C 230.317,294.862 241.983,292.695 253.5,292.5C 261.867,294.573 270.367,295.907 279,296.5C 287.817,300.908 296.484,305.575 305,310.5C 308.783,314.063 312.783,317.397 317,320.5C 317.081,323.81 318.581,326.143 321.5,327.5C 323.58,332.666 326.413,337.333 330,341.5C 331.962,347.422 334.462,353.089 337.5,358.5C 338.496,364.798 338.83,371.132 338.5,377.5 Z"/></g>
<g><path style="opacity:0.98" fill="#e8aa30" d="M 66.5,260.5 C 67.7095,260.932 68.7095,261.599 69.5,262.5C 69.0618,262.435 68.7284,262.601 68.5,263C 69.756,263.417 70.4226,264.25 70.5,265.5C 68.048,265.376 66.048,264.376 64.5,262.5C 61.4577,263.048 60.1243,264.881 60.5,268C 60.8569,277.287 65.0236,284.12 73,288.5C 77.5356,296.32 75.2023,299.654 66,298.5C 66.2346,302.711 67.4012,306.711 69.5,310.5C 68.1667,310.5 66.8333,310.5 65.5,310.5C 65.7009,307.235 64.5343,304.569 62,302.5C 60.9649,294.809 64.4649,291.642 72.5,293C 70.9512,291.786 69.7845,290.286 69,288.5C 68.2828,289.044 67.7828,289.711 67.5,290.5C 66.0937,290.027 65.427,289.027 65.5,287.5C 64.2921,284.391 62.7921,281.391 61,278.5C 60.0435,275.07 59.5435,271.57 59.5,268C 58.4169,262.147 60.7502,259.647 66.5,260.5 Z"/></g>
<g><path style="opacity:1" fill="#faa308" d="M 70.5,265.5 C 72.4553,265.799 73.7886,266.799 74.5,268.5C 75.7927,270.296 77.2927,271.963 79,273.5C 79.3333,277.833 79.6667,282.167 80,286.5C 80.6667,285.167 81.3333,285.167 82,286.5C 82.0493,291.064 82.8827,295.397 84.5,299.5C 83.1786,301.853 83.1786,304.186 84.5,306.5C 85.822,311.993 83.822,314.493 78.5,314C 75.7449,312.047 72.7449,310.88 69.5,310.5C 67.4012,306.711 66.2346,302.711 66,298.5C 75.2023,299.654 77.5356,296.32 73,288.5C 65.0236,284.12 60.8569,277.287 60.5,268C 60.1243,264.881 61.4577,263.048 64.5,262.5C 66.048,264.376 68.048,265.376 70.5,265.5 Z"/></g>
<g><path style="opacity:0.325" fill="#f0d179" d="M 65.5,310.5 C 64.7611,310.631 64.0944,310.464 63.5,310C 59.5498,305.117 58.5498,299.617 60.5,293.5C 63.1092,292.77 65.7759,292.27 68.5,292C 67.944,291.617 67.6107,291.117 67.5,290.5C 67.7828,289.711 68.2828,289.044 69,288.5C 69.7845,290.286 70.9512,291.786 72.5,293C 64.4649,291.642 60.9649,294.809 62,302.5C 64.5343,304.569 65.7009,307.235 65.5,310.5 Z"/></g>
<g><path style="opacity:1" fill="#fde073" d="M 338.5,377.5 C 338.5,378.167 338.5,378.833 338.5,379.5C 337.04,381.463 335.373,383.296 333.5,385C 296.611,403.375 257.611,410.042 216.5,405C 212.147,402.743 207.48,401.41 202.5,401C 201.833,400.333 201.167,399.667 200.5,399C 193.765,397.983 187.099,396.649 180.5,395C 174.655,392.33 168.655,390.164 162.5,388.5C 161.542,387.038 160.376,385.705 159,384.5C 159.501,376.495 160.501,368.495 162,360.5C 164.116,356.392 165.783,352.059 167,347.5C 170.333,343.5 173.667,339.5 177,335.5C 179.265,330.906 181.932,326.572 185,322.5C 189.376,319.851 193.542,316.851 197.5,313.5C 200.161,312.501 202.828,311.501 205.5,310.5C 206.982,308.517 208.649,306.684 210.5,305C 219.683,302.03 229.016,299.697 238.5,298C 250.638,297.005 262.638,297.672 274.5,300C 279.871,303.696 285.871,305.53 292.5,305.5C 293.015,307.225 293.682,308.892 294.5,310.5C 297.088,311.194 299.421,312.36 301.5,314C 306,317.833 310.5,321.667 315,325.5C 318.946,332.599 323.446,339.266 328.5,345.5C 332.864,355.922 336.198,366.588 338.5,377.5 Z"/></g>
<g><path style="opacity:1" fill="#fbe584" d="M 238.5,299.5 C 281.346,297.602 311.513,315.935 329,354.5C 331.343,359.906 331.843,365.406 330.5,371C 332.227,372.389 333.561,374.056 334.5,376C 332.513,378.476 331.513,381.31 331.5,384.5C 321.148,389.342 310.482,393.509 299.5,397C 286.564,399.487 273.564,401.654 260.5,403.5C 256.534,403.528 252.534,403.195 248.5,402.5C 247.252,403.04 246.085,403.707 245,404.5C 216.737,403.203 189.57,396.703 163.5,385C 161.406,383.745 160.406,381.912 160.5,379.5C 161.902,375.301 162.735,370.967 163,366.5C 168.676,351.482 176.676,337.816 187,325.5C 201.708,311.896 218.875,303.229 238.5,299.5 Z"/></g>
<g><path style="opacity:1" fill="#f8bd37" d="M 74.5,268.5 C 76.1172,269.038 77.7839,269.371 79.5,269.5C 80.6883,270.364 81.8549,271.364 83,272.5C 83.5508,283.023 85.2174,293.357 88,303.5C 89.3333,304.167 90.3333,305.167 91,306.5C 92.3914,313.16 94.7247,319.493 98,325.5C 99.1545,326.743 100.488,327.743 102,328.5C 108.107,340.531 115.607,351.698 124.5,362C 128.906,364.234 132.573,367.401 135.5,371.5C 140.239,373.743 144.572,376.577 148.5,380C 150.518,380.505 152.518,381.005 154.5,381.5C 154.5,382.167 154.5,382.833 154.5,383.5C 154.427,385.027 155.094,386.027 156.5,386.5C 156.5,387.167 156.5,387.833 156.5,388.5C 149.344,386.173 142.51,383.173 136,379.5C 135.383,378.551 135.549,377.718 136.5,377C 133.067,373.582 129.067,370.916 124.5,369C 121.903,365.281 118.737,362.114 115,359.5C 114.667,359.833 114.333,360.167 114,360.5C 110.283,351.399 105.283,343.066 99,335.5C 95.3102,326.135 91.3102,316.802 87,307.5C 86.3292,306.748 85.4959,306.414 84.5,306.5C 83.1786,304.186 83.1786,301.853 84.5,299.5C 82.8827,295.397 82.0493,291.064 82,286.5C 81.3333,285.167 80.6667,285.167 80,286.5C 79.6667,282.167 79.3333,277.833 79,273.5C 77.2927,271.963 75.7927,270.296 74.5,268.5 Z"/></g>
<g><path style="opacity:0.529" fill="#f0c55e" d="M 437.5,283.5 C 434.377,288.457 430.377,292.624 425.5,296C 436.108,298.049 438.942,303.549 434,312.5C 427.947,318.645 420.78,323.145 412.5,326C 417.923,328.677 419.59,332.844 417.5,338.5C 415.589,341.122 413.255,343.289 410.5,345C 404.217,346.04 397.884,346.873 391.5,347.5C 385.636,363.017 377.303,377.017 366.5,389.5C 366.34,387.801 366.506,386.134 367,384.5C 369.694,381.108 371.86,377.441 373.5,373.5C 377.016,369.111 379.516,364.111 381,358.5C 382.154,357.257 383.488,356.257 385,355.5C 385.972,351.857 386.806,348.19 387.5,344.5C 392.951,344.461 398.284,344.128 403.5,343.5C 406.574,341.098 409.908,339.098 413.5,337.5C 414.663,335.45 414.496,333.45 413,331.5C 410.931,329.915 408.764,328.581 406.5,327.5C 406.33,326.178 406.663,325.011 407.5,324C 411.297,321.876 415.297,320.209 419.5,319C 422.491,316.152 425.824,313.985 429.5,312.5C 430.75,312.423 431.583,311.756 432,310.5C 433.25,307.923 433.584,305.257 433,302.5C 429.616,300.857 426.116,299.524 422.5,298.5C 422.5,297.167 422.5,295.833 422.5,294.5C 425.412,293.26 427.746,291.26 429.5,288.5C 431.149,287.351 432.649,286.018 434,284.5C 435.138,284.011 436.305,283.678 437.5,283.5 Z"/></g>
<g><path style="opacity:1" fill="#f9a20a" d="M 406.5,327.5 C 408.764,328.581 410.931,329.915 413,331.5C 414.496,333.45 414.663,335.45 413.5,337.5C 409.908,339.098 406.574,341.098 403.5,343.5C 398.988,343.851 394.655,343.185 390.5,341.5C 391.528,339.639 393.028,338.305 395,337.5C 395.561,333.905 396.728,330.572 398.5,327.5C 400.987,327.218 403.653,327.218 406.5,327.5 Z"/></g>
<g><path style="opacity:1" fill="#f9c541" d="M 392.5,309.5 C 388.849,317.951 385.682,326.617 383,335.5C 378.082,341.662 373.916,348.329 370.5,355.5C 364.612,360.92 358.945,366.754 353.5,373C 351.167,373.333 348.833,373.667 346.5,374C 344.583,376.423 342.25,378.256 339.5,379.5C 346.305,374.112 352.639,368.278 358.5,362C 359.448,361.517 360.448,361.351 361.5,361.5C 361.491,359.692 361.991,358.025 363,356.5C 370.947,347.969 377.947,338.636 384,328.5C 385.217,321.312 388.05,314.978 392.5,309.5 Z"/></g>
<g><path style="opacity:0.157" fill="#f9e096" d="M 88.5,338.5 C 93.5339,349.066 98.8672,359.566 104.5,370C 103.944,370.383 103.611,370.883 103.5,371.5C 97.109,361.116 92.109,350.116 88.5,338.5 Z"/></g>
<g><path style="opacity:0.98" fill="#ecbc59" d="M 65.5,310.5 C 66.8333,310.5 68.1667,310.5 69.5,310.5C 73.3651,314.124 78.0318,315.791 83.5,315.5C 83.5543,318.967 82.0543,321.634 79,323.5C 78.0145,326.742 78.8478,329.408 81.5,331.5C 84.9288,331.907 88.0954,332.907 91,334.5C 96.6676,347.179 102.334,359.845 108,372.5C 112.015,374.199 114.349,377.199 115,381.5C 121.254,389.434 128.921,395.434 138,399.5C 138.229,402.458 139.396,404.958 141.5,407C 144.3,408.485 146.966,410.151 149.5,412C 152.393,413.149 155.393,413.649 158.5,413.5C 162.975,415.286 167.642,416.452 172.5,417C 173.665,418.084 174.998,418.917 176.5,419.5C 177.452,421.045 177.785,422.712 177.5,424.5C 177.5,424.833 177.5,425.167 177.5,425.5C 176.609,424.89 175.609,424.557 174.5,424.5C 163.029,421.999 152.362,417.665 142.5,411.5C 142.611,410.883 142.944,410.383 143.5,410C 135.617,404.791 128.617,398.458 122.5,391C 121.207,390.51 119.873,390.343 118.5,390.5C 112.791,384.784 107.791,378.451 103.5,371.5C 103.611,370.883 103.944,370.383 104.5,370C 98.8672,359.566 93.5339,349.066 88.5,338.5C 82.9516,337.392 78.2849,334.725 74.5,330.5C 72.6129,324.863 74.2796,320.696 79.5,318C 76.583,316.895 73.583,315.895 70.5,315C 68.3083,313.933 66.6417,312.433 65.5,310.5 Z"/></g>
<g><path style="opacity:1" fill="#fab22f" d="M 84.5,306.5 C 85.4959,306.414 86.3292,306.748 87,307.5C 91.3102,316.802 95.3102,326.135 99,335.5C 105.283,343.066 110.283,351.399 114,360.5C 114.333,360.167 114.667,359.833 115,359.5C 118.737,362.114 121.903,365.281 124.5,369C 129.067,370.916 133.067,373.582 136.5,377C 135.549,377.718 135.383,378.551 136,379.5C 142.51,383.173 149.344,386.173 156.5,388.5C 159.557,391.079 159.89,393.912 157.5,397C 159.186,398.647 160.52,400.481 161.5,402.5C 161.215,404.569 160.048,405.902 158,406.5C 157.654,408.218 157.154,409.885 156.5,411.5C 157.243,412.182 157.909,412.849 158.5,413.5C 155.393,413.649 152.393,413.149 149.5,412C 146.966,410.151 144.3,408.485 141.5,407C 139.396,404.958 138.229,402.458 138,399.5C 128.921,395.434 121.254,389.434 115,381.5C 114.349,377.199 112.015,374.199 108,372.5C 102.334,359.845 96.6676,347.179 91,334.5C 88.0954,332.907 84.9288,331.907 81.5,331.5C 78.8478,329.408 78.0145,326.742 79,323.5C 82.0543,321.634 83.5543,318.967 83.5,315.5C 78.0318,315.791 73.3651,314.124 69.5,310.5C 72.7449,310.88 75.7449,312.047 78.5,314C 83.822,314.493 85.822,311.993 84.5,306.5 Z"/></g>
<g><path style="opacity:1" fill="#f9b32f" d="M 438.5,282.5 C 438.5,283.167 438.167,283.5 437.5,283.5C 436.305,283.678 435.138,284.011 434,284.5C 432.649,286.018 431.149,287.351 429.5,288.5C 432.244,284.015 434.744,279.348 437,274.5C 437.667,272.167 437.667,269.833 437,267.5C 436.586,267.043 436.086,266.709 435.5,266.5C 427.511,272.256 418.511,275.423 408.5,276C 407.692,277.706 406.359,278.539 404.5,278.5C 404.946,292.372 403.613,306.039 400.5,319.5C 406.305,320.934 411.972,320.434 417.5,318C 420.997,314.987 424.997,313.153 429.5,312.5C 425.824,313.985 422.491,316.152 419.5,319C 415.297,320.209 411.297,321.876 407.5,324C 406.663,325.011 406.33,326.178 406.5,327.5C 403.653,327.218 400.987,327.218 398.5,327.5C 396.728,330.572 395.561,333.905 395,337.5C 393.028,338.305 391.528,339.639 390.5,341.5C 394.655,343.185 398.988,343.851 403.5,343.5C 398.284,344.128 392.951,344.461 387.5,344.5C 386.806,348.19 385.972,351.857 385,355.5C 383.488,356.257 382.154,357.257 381,358.5C 379.516,364.111 377.016,369.111 373.5,373.5C 370.843,376.657 368.01,379.657 365,382.5C 364.025,386.576 361.525,389.242 357.5,390.5C 354.019,394.815 350.353,398.982 346.5,403C 341.798,404.991 337.131,406.824 332.5,408.5C 330.924,404.695 331.591,401.529 334.5,399C 334.043,398.586 333.709,398.086 333.5,397.5C 335.32,392.032 337.32,386.699 339.5,381.5C 339.5,380.833 339.5,380.167 339.5,379.5C 342.25,378.256 344.583,376.423 346.5,374C 348.833,373.667 351.167,373.333 353.5,373C 358.945,366.754 364.612,360.92 370.5,355.5C 373.916,348.329 378.082,341.662 383,335.5C 385.682,326.617 388.849,317.951 392.5,309.5C 396.654,296.722 399.654,283.722 401.5,270.5C 402.791,272.315 404.624,273.315 407,273.5C 410.5,273 414,272.5 417.5,272C 420.705,271.088 423.039,269.255 424.5,266.5C 424.833,266.5 425.167,266.5 425.5,266.5C 428.973,266.398 432.139,265.398 435,263.5C 436.285,263.95 437.452,264.617 438.5,265.5C 438.78,271.328 438.78,276.994 438.5,282.5 Z"/></g>
<g><path style="opacity:0.11" fill="#f5d97e" d="M 118.5,390.5 C 119.873,390.343 121.207,390.51 122.5,391C 128.617,398.458 135.617,404.791 143.5,410C 142.944,410.383 142.611,410.883 142.5,411.5C 132.847,406.216 124.847,399.216 118.5,390.5 Z"/></g>
<g><path style="opacity:1" fill="#f5c555" d="M 338.5,379.5 C 338.833,379.5 339.167,379.5 339.5,379.5C 339.5,380.167 339.5,380.833 339.5,381.5C 335.926,384.463 332.926,387.963 330.5,392C 320.792,394.397 311.459,397.73 302.5,402C 297.167,402.333 291.833,402.667 286.5,403C 282.359,404.597 278.192,406.097 274,407.5C 246.239,409.597 218.739,408.097 191.5,403C 181.817,399.301 172.15,395.634 162.5,392C 160.63,389.96 158.63,388.127 156.5,386.5C 155.094,386.027 154.427,385.027 154.5,383.5C 157.184,385.193 159.851,386.86 162.5,388.5C 168.655,390.164 174.655,392.33 180.5,395C 187.099,396.649 193.765,397.983 200.5,399C 201.167,399.667 201.833,400.333 202.5,401C 207.48,401.41 212.147,402.743 216.5,405C 257.611,410.042 296.611,403.375 333.5,385C 335.373,383.296 337.04,381.463 338.5,379.5 Z"/></g>
<g><path style="opacity:0.451" fill="#f1c974" d="M 365.5,389.5 C 364.182,393.332 361.848,396.499 358.5,399C 340.644,413.592 320.311,423.426 297.5,428.5C 298.976,437.05 299.809,445.717 300,454.5C 301.356,456.409 302.856,458.076 304.5,459.5C 301.978,458.989 299.645,457.989 297.5,456.5C 297.5,456.167 297.5,455.833 297.5,455.5C 297.214,446.498 296.881,437.498 296.5,428.5C 295.708,427.033 295.708,425.7 296.5,424.5C 301.566,422.213 306.9,421.046 312.5,421C 320.252,416.108 328.586,412.441 337.5,410C 341.204,407.148 345.204,404.815 349.5,403C 352.101,399.394 355.101,396.061 358.5,393C 359.793,392.51 361.127,392.343 362.5,392.5C 362.5,391.5 362.5,390.5 362.5,389.5C 363.5,389.5 364.5,389.5 365.5,389.5 Z"/></g>
<g><path style="opacity:1" fill="#f9bb45" d="M 373.5,373.5 C 371.86,377.441 369.694,381.108 367,384.5C 366.506,386.134 366.34,387.801 366.5,389.5C 366.167,389.5 365.833,389.5 365.5,389.5C 364.5,389.5 363.5,389.5 362.5,389.5C 362.5,390.5 362.5,391.5 362.5,392.5C 361.127,392.343 359.793,392.51 358.5,393C 355.101,396.061 352.101,399.394 349.5,403C 345.204,404.815 341.204,407.148 337.5,410C 328.586,412.441 320.252,416.108 312.5,421C 306.9,421.046 301.566,422.213 296.5,424.5C 295.708,425.7 295.708,427.033 296.5,428.5C 293.222,426.994 290.222,427.327 287.5,429.5C 286.833,429.5 286.167,429.5 285.5,429.5C 280.585,428.888 275.252,428.888 269.5,429.5C 250.83,429.667 232.164,429.5 213.5,429C 206.35,427.669 199.184,426.502 192,425.5C 191.601,425.728 191.435,426.062 191.5,426.5C 186.988,425.019 182.322,424.352 177.5,424.5C 177.785,422.712 177.452,421.045 176.5,419.5C 174.998,418.917 173.665,418.084 172.5,417C 167.642,416.452 162.975,415.286 158.5,413.5C 157.909,412.849 157.243,412.182 156.5,411.5C 157.154,409.885 157.654,408.218 158,406.5C 160.048,405.902 161.215,404.569 161.5,402.5C 160.52,400.481 159.186,398.647 157.5,397C 159.89,393.912 159.557,391.079 156.5,388.5C 156.5,387.833 156.5,387.167 156.5,386.5C 158.63,388.127 160.63,389.96 162.5,392C 172.15,395.634 181.817,399.301 191.5,403C 218.739,408.097 246.239,409.597 274,407.5C 278.192,406.097 282.359,404.597 286.5,403C 291.833,402.667 297.167,402.333 302.5,402C 311.459,397.73 320.792,394.397 330.5,392C 332.926,387.963 335.926,384.463 339.5,381.5C 337.32,386.699 335.32,392.032 333.5,397.5C 333.709,398.086 334.043,398.586 334.5,399C 331.591,401.529 330.924,404.695 332.5,408.5C 337.131,406.824 341.798,404.991 346.5,403C 350.353,398.982 354.019,394.815 357.5,390.5C 361.525,389.242 364.025,386.576 365,382.5C 368.01,379.657 370.843,376.657 373.5,373.5 Z"/></g>
<g><path style="opacity:0.607" fill="#ebc060" d="M 269.5,429.5 C 260.358,430.832 250.858,431.498 241,431.5C 231.5,431.333 222,431.167 212.5,431C 206.494,428.589 200.494,428.089 194.5,429.5C 193.833,429.5 193.167,429.5 192.5,429.5C 192.5,428.833 192.167,428.5 191.5,428.5C 191.5,427.833 191.5,427.167 191.5,426.5C 191.435,426.062 191.601,425.728 192,425.5C 199.184,426.502 206.35,427.669 213.5,429C 232.164,429.5 250.83,429.667 269.5,429.5 Z"/></g>
<g><path style="opacity:0.318" fill="#f5d889" d="M 269.5,429.5 C 275.252,428.888 280.585,428.888 285.5,429.5C 285.5,438.833 285.5,448.167 285.5,457.5C 284.833,457.5 284.167,457.5 283.5,457.5C 283.5,448.833 283.5,440.167 283.5,431.5C 253.57,435.916 223.903,435.249 194.5,429.5C 200.494,428.089 206.494,428.589 212.5,431C 222,431.167 231.5,431.333 241,431.5C 250.858,431.498 260.358,430.832 269.5,429.5 Z"/></g>
<g><path style="opacity:0.033" fill="#facaa2" d="M 174.5,424.5 C 175.609,424.557 176.609,424.89 177.5,425.5C 177.5,436.833 177.5,448.167 177.5,459.5C 176.833,459.5 176.167,459.5 175.5,459.5C 175.811,447.753 175.478,436.086 174.5,424.5 Z"/></g>
<g><path style="opacity:0.659" fill="#c95a23" d="M 296.5,428.5 C 296.881,437.498 297.214,446.498 297.5,455.5C 296.195,453.603 295.529,451.269 295.5,448.5C 294.86,441.846 294.527,435.18 294.5,428.5C 292.194,428.993 289.861,429.326 287.5,429.5C 290.222,427.327 293.222,426.994 296.5,428.5 Z"/></g>
<g><path style="opacity:0.035" fill="#ffd2b6" d="M 191.5,428.5 C 192.167,428.5 192.5,428.833 192.5,429.5C 193.028,439.92 194.028,450.253 195.5,460.5C 194.5,460.5 193.5,460.5 192.5,460.5C 192.5,460.167 192.5,459.833 192.5,459.5C 192.125,449.168 191.792,438.835 191.5,428.5 Z"/></g>
<g><path style="opacity:1" fill="#e74c06" d="M 297.5,455.5 C 297.5,455.833 297.5,456.167 297.5,456.5C 298.038,458.117 298.371,459.784 298.5,461.5C 305.304,463.378 311.971,465.878 318.5,469C 320.833,469.333 323.167,469.667 325.5,470C 326.406,471.699 326.739,473.533 326.5,475.5C 321.155,475.313 315.822,474.98 310.5,474.5C 311.112,478.163 311.279,481.83 311,485.5C 310.275,486.059 309.442,486.392 308.5,486.5C 306.675,485.349 304.675,484.682 302.5,484.5C 302.649,483.448 302.483,482.448 302,481.5C 299.945,479.445 298.279,477.112 297,474.5C 295.67,473.418 294.17,472.751 292.5,472.5C 291.749,471.427 290.749,471.26 289.5,472C 285.608,475.394 281.942,478.894 278.5,482.5C 276.745,483.072 275.078,483.906 273.5,485C 269.195,486.539 266.528,485.206 265.5,481C 265.715,479.092 266.715,477.926 268.5,477.5C 270.113,475.73 272.113,474.564 274.5,474C 277.977,468.526 282.144,463.693 287,459.5C 286.658,449.432 286.824,439.432 287.5,429.5C 289.861,429.326 292.194,428.993 294.5,428.5C 294.527,435.18 294.86,441.846 295.5,448.5C 295.529,451.269 296.195,453.603 297.5,455.5 Z"/></g>
<g><path style="opacity:0.851" fill="#d15f26" d="M 297.5,456.5 C 299.645,457.989 301.978,458.989 304.5,459.5C 307.5,460.167 310.5,460.833 313.5,461.5C 314.83,465.918 317.83,467.585 322.5,466.5C 325.491,466.166 327.824,467.166 329.5,469.5C 331.329,472.852 330.662,475.519 327.5,477.5C 324.572,478.484 321.572,478.817 318.5,478.5C 316.786,477.262 314.786,476.595 312.5,476.5C 313.376,479.799 313.543,483.132 313,486.5C 310.503,488.478 307.669,488.978 304.5,488C 301.273,483.949 297.939,480.115 294.5,476.5C 294.267,474.938 293.6,473.605 292.5,472.5C 294.17,472.751 295.67,473.418 297,474.5C 298.279,477.112 299.945,479.445 302,481.5C 302.483,482.448 302.649,483.448 302.5,484.5C 304.675,484.682 306.675,485.349 308.5,486.5C 309.442,486.392 310.275,486.059 311,485.5C 311.279,481.83 311.112,478.163 310.5,474.5C 315.822,474.98 321.155,475.313 326.5,475.5C 326.739,473.533 326.406,471.699 325.5,470C 323.167,469.667 320.833,469.333 318.5,469C 311.971,465.878 305.304,463.378 298.5,461.5C 298.371,459.784 298.038,458.117 297.5,456.5 Z"/></g>
<g><path style="opacity:0.341" fill="#dd8f5c" d="M 283.5,457.5 C 284.167,457.5 284.833,457.5 285.5,457.5C 282.201,462.466 278.201,466.799 273.5,470.5C 273.5,469.833 273.5,469.167 273.5,468.5C 276.394,464.397 279.727,460.731 283.5,457.5 Z"/></g>
<g><path style="opacity:0.871" fill="#c35520" d="M 285.5,429.5 C 286.167,429.5 286.833,429.5 287.5,429.5C 286.824,439.432 286.658,449.432 287,459.5C 282.144,463.693 277.977,468.526 274.5,474C 272.113,474.564 270.113,475.73 268.5,477.5C 269.754,474.907 271.42,472.573 273.5,470.5C 278.201,466.799 282.201,462.466 285.5,457.5C 285.5,448.167 285.5,438.833 285.5,429.5 Z"/></g>
<g><path style="opacity:0.024" fill="#e6a579" d="M 313.5,461.5 C 316.887,462.615 319.887,464.282 322.5,466.5C 317.83,467.585 314.83,465.918 313.5,461.5 Z"/></g>
<g><path style="opacity:1" fill="#ef4d03" d="M 203.5,470.5 C 205.682,471.3 207.349,472.8 208.5,475C 213.332,475.85 215.999,478.684 216.5,483.5C 214.473,483.662 212.473,483.495 210.5,483C 205.253,478.399 199.587,477.232 193.5,479.5C 192.883,479.611 192.383,479.944 192,480.5C 191.802,483.702 190.969,486.702 189.5,489.5C 186.989,486.16 185.156,482.494 184,478.5C 181.398,474.788 177.898,473.622 173.5,475C 169.997,478.272 165.997,479.438 161.5,478.5C 165.012,473.076 170.012,470.243 176.5,470C 180.241,464.69 182.241,458.69 182.5,452C 181.534,445.516 181.368,439.016 182,432.5C 185.423,429.874 187.423,430.874 188,435.5C 187.783,444.478 187.616,453.478 187.5,462.5C 192.358,463.505 196.358,466.005 199.5,470C 200.793,470.49 202.127,470.657 203.5,470.5 Z"/></g>
<g><path style="opacity:1" fill="#f1d2a6" d="M 204.5,466.5 C 207.14,466.954 209.473,468.121 211.5,470C 231.167,470.667 250.833,470.667 270.5,470C 271.527,469.487 272.527,468.987 273.5,468.5C 273.5,469.167 273.5,469.833 273.5,470.5C 269.051,472.584 265.884,475.918 264,480.5C 263.333,481.833 263.333,483.167 264,484.5C 265.771,485.304 267.271,486.471 268.5,488C 272.669,490.541 275.669,489.541 277.5,485C 280.33,484.131 282.997,482.964 285.5,481.5C 286.386,480.675 286.719,479.675 286.5,478.5C 288.481,477.652 290.481,477.152 292.5,477C 295.579,479.787 298.246,483.621 300.5,488.5C 304.889,490.656 309.389,490.989 314,489.5C 314.499,485.848 314.665,482.182 314.5,478.5C 315.833,478.5 317.167,478.5 318.5,478.5C 321.572,478.817 324.572,478.484 327.5,477.5C 330.662,475.519 331.329,472.852 329.5,469.5C 331.539,470.672 332.872,472.338 333.5,474.5C 333.238,475.978 333.571,477.311 334.5,478.5C 337.133,479.301 338.967,480.967 340,483.5C 340.388,482.572 341.055,481.905 342,481.5C 345.536,481.5 349.036,482.5 352.5,484.5C 353.086,484.291 353.586,483.957 354,483.5C 359.083,484.307 364.25,484.807 369.5,485C 376.068,488.14 383.068,489.307 390.5,488.5C 390.5,489.833 390.5,491.167 390.5,492.5C 387.15,492.506 384.15,493.506 381.5,495.5C 377.437,493.945 373.437,494.445 369.5,497C 351.622,499.954 333.622,501.788 315.5,502.5C 316.167,498.833 316.833,495.167 317.5,491.5C 316.178,491.33 315.011,491.663 314,492.5C 313.654,494.218 313.154,495.885 312.5,497.5C 313.165,499.101 313.499,500.601 313.5,502C 304.584,504.054 295.918,504.554 287.5,503.5C 260.328,506.123 233.161,506.123 206,503.5C 193.978,505.83 181.978,505.83 170,503.5C 166.776,503.299 163.443,503.633 160,504.5C 145.607,502.233 131.107,500.4 116.5,499C 109.562,496.763 102.562,494.93 95.5,493.5C 96.1173,488.708 98.7839,485.541 103.5,484C 115.244,484.069 126.744,482.569 138,479.5C 141.935,478.791 144.935,480.124 147,483.5C 147.953,480.568 148.453,477.568 148.5,474.5C 150.167,474.5 151.833,474.5 153.5,474.5C 152.767,476.963 151.767,479.297 150.5,481.5C 151.882,487.334 155.382,489 161,486.5C 163.502,484.554 166.336,483.387 169.5,483C 170.71,481.961 171.71,480.794 172.5,479.5C 174.052,476.724 176.386,475.557 179.5,476C 180.757,479.291 182.09,482.458 183.5,485.5C 183.639,492.141 186.972,494.974 193.5,494C 194.126,493.25 194.626,492.416 195,491.5C 195.499,487.179 195.666,482.846 195.5,478.5C 200.254,480.376 204.921,482.542 209.5,485C 212.817,485.498 216.15,485.665 219.5,485.5C 219.662,483.473 219.495,481.473 219,479.5C 215.305,474.786 210.805,471.286 205.5,469C 204.748,468.329 204.414,467.496 204.5,466.5 Z"/></g>
<g><path style="opacity:1" fill="#ef9d63" d="M 292.5,472.5 C 293.6,473.605 294.267,474.938 294.5,476.5C 292.84,474.752 290.84,474.252 288.5,475C 285.86,478.479 282.526,480.979 278.5,482.5C 281.942,478.894 285.608,475.394 289.5,472C 290.749,471.26 291.749,471.427 292.5,472.5 Z"/></g>
<g><path style="opacity:1" fill="#d7490c" d="M 192.5,459.5 C 192.5,459.833 192.5,460.167 192.5,460.5C 196.743,462.963 200.41,466.296 203.5,470.5C 202.127,470.657 200.793,470.49 199.5,470C 196.358,466.005 192.358,463.505 187.5,462.5C 187.616,453.478 187.783,444.478 188,435.5C 187.423,430.874 185.423,429.874 182,432.5C 181.368,439.016 181.534,445.516 182.5,452C 182.241,458.69 180.241,464.69 176.5,470C 170.012,470.243 165.012,473.076 161.5,478.5C 165.997,479.438 169.997,478.272 173.5,475C 177.898,473.622 181.398,474.788 184,478.5C 185.156,482.494 186.989,486.16 189.5,489.5C 190.969,486.702 191.802,483.702 192,480.5C 192.383,479.944 192.883,479.611 193.5,479.5C 193.957,483.584 193.29,487.417 191.5,491C 190.167,491.667 188.833,491.667 187.5,491C 186.512,488.833 185.179,487 183.5,485.5C 182.09,482.458 180.757,479.291 179.5,476C 176.386,475.557 174.052,476.724 172.5,479.5C 169.02,481.217 165.353,482.55 161.5,483.5C 159.473,483.662 157.473,483.495 155.5,483C 154.446,481.612 154.28,480.112 155,478.5C 160.239,477.025 164.406,474.025 167.5,469.5C 171.596,468.576 175.096,466.576 178,463.5C 178.5,450.838 178.667,438.171 178.5,425.5C 182.399,425.965 186.233,426.632 190,427.5C 189.852,438.547 190.686,449.214 192.5,459.5 Z"/></g>
<g><path style="opacity:1" fill="#f9c38f" d="M 273.5,470.5 C 271.42,472.573 269.754,474.907 268.5,477.5C 266.715,477.926 265.715,479.092 265.5,481C 266.528,485.206 269.195,486.539 273.5,485C 275.078,483.906 276.745,483.072 278.5,482.5C 282.526,480.979 285.86,478.479 288.5,475C 290.84,474.252 292.84,474.752 294.5,476.5C 297.939,480.115 301.273,483.949 304.5,488C 307.669,488.978 310.503,488.478 313,486.5C 313.543,483.132 313.376,479.799 312.5,476.5C 314.786,476.595 316.786,477.262 318.5,478.5C 317.167,478.5 315.833,478.5 314.5,478.5C 314.665,482.182 314.499,485.848 314,489.5C 309.389,490.989 304.889,490.656 300.5,488.5C 298.246,483.621 295.579,479.787 292.5,477C 290.481,477.152 288.481,477.652 286.5,478.5C 286.719,479.675 286.386,480.675 285.5,481.5C 282.997,482.964 280.33,484.131 277.5,485C 275.669,489.541 272.669,490.541 268.5,488C 267.271,486.471 265.771,485.304 264,484.5C 263.333,483.167 263.333,481.833 264,480.5C 265.884,475.918 269.051,472.584 273.5,470.5 Z"/></g>
<g><path style="opacity:1" fill="#c85b25" d="M 177.5,424.5 C 182.322,424.352 186.988,425.019 191.5,426.5C 191.5,427.167 191.5,427.833 191.5,428.5C 191.792,438.835 192.125,449.168 192.5,459.5C 190.686,449.214 189.852,438.547 190,427.5C 186.233,426.632 182.399,425.965 178.5,425.5C 178.667,438.171 178.5,450.838 178,463.5C 175.096,466.576 171.596,468.576 167.5,469.5C 164.406,474.025 160.239,477.025 155,478.5C 154.28,480.112 154.446,481.612 155.5,483C 157.473,483.495 159.473,483.662 161.5,483.5C 161.389,484.117 161.056,484.617 160.5,485C 152.897,487.067 150.73,484.567 154,477.5C 156.669,474.836 159.836,473.002 163.5,472C 166.193,468.205 169.86,465.871 174.5,465C 176.607,463.736 177.607,461.903 177.5,459.5C 177.5,448.167 177.5,436.833 177.5,425.5C 177.5,425.167 177.5,424.833 177.5,424.5 Z"/></g>
<g><path style="opacity:1" fill="#eaa26d" d="M 175.5,459.5 C 176.167,459.5 176.833,459.5 177.5,459.5C 177.607,461.903 176.607,463.736 174.5,465C 169.86,465.871 166.193,468.205 163.5,472C 159.836,473.002 156.669,474.836 154,477.5C 150.73,484.567 152.897,487.067 160.5,485C 161.056,484.617 161.389,484.117 161.5,483.5C 165.353,482.55 169.02,481.217 172.5,479.5C 171.71,480.794 170.71,481.961 169.5,483C 166.336,483.387 163.502,484.554 161,486.5C 155.382,489 151.882,487.334 150.5,481.5C 151.767,479.297 152.767,476.963 153.5,474.5C 160.115,471.19 166.448,467.357 172.5,463C 174.063,462.241 175.063,461.074 175.5,459.5 Z"/></g>
<g><path style="opacity:1" fill="#d0602b" d="M 192.5,460.5 C 193.5,460.5 194.5,460.5 195.5,460.5C 198.378,461.37 201.045,462.703 203.5,464.5C 204.298,464.957 204.631,465.624 204.5,466.5C 204.414,467.496 204.748,468.329 205.5,469C 210.805,471.286 215.305,474.786 219,479.5C 219.495,481.473 219.662,483.473 219.5,485.5C 216.15,485.665 212.817,485.498 209.5,485C 204.921,482.542 200.254,480.376 195.5,478.5C 195.666,482.846 195.499,487.179 195,491.5C 194.626,492.416 194.126,493.25 193.5,494C 186.972,494.974 183.639,492.141 183.5,485.5C 185.179,487 186.512,488.833 187.5,491C 188.833,491.667 190.167,491.667 191.5,491C 193.29,487.417 193.957,483.584 193.5,479.5C 199.587,477.232 205.253,478.399 210.5,483C 212.473,483.495 214.473,483.662 216.5,483.5C 215.999,478.684 213.332,475.85 208.5,475C 207.349,472.8 205.682,471.3 203.5,470.5C 200.41,466.296 196.743,462.963 192.5,460.5 Z"/></g>
<g><path style="opacity:0.949" fill="#ebd8b1" d="M 148.5,474.5 C 148.453,477.568 147.953,480.568 147,483.5C 144.935,480.124 141.935,478.791 138,479.5C 126.744,482.569 115.244,484.069 103.5,484C 98.7839,485.541 96.1173,488.708 95.5,493.5C 102.562,494.93 109.562,496.763 116.5,499C 131.107,500.4 145.607,502.233 160,504.5C 163.443,503.633 166.776,503.299 170,503.5C 181.978,505.83 193.978,505.83 206,503.5C 233.161,506.123 260.328,506.123 287.5,503.5C 295.918,504.554 304.584,504.054 313.5,502C 313.499,500.601 313.165,499.101 312.5,497.5C 313.154,495.885 313.654,494.218 314,492.5C 315.011,491.663 316.178,491.33 317.5,491.5C 316.833,495.167 316.167,498.833 315.5,502.5C 333.622,501.788 351.622,499.954 369.5,497C 373.437,494.445 377.437,493.945 381.5,495.5C 384.15,493.506 387.15,492.506 390.5,492.5C 390.5,491.167 390.5,489.833 390.5,488.5C 383.068,489.307 376.068,488.14 369.5,485C 364.25,484.807 359.083,484.307 354,483.5C 353.586,483.957 353.086,484.291 352.5,484.5C 349.036,482.5 345.536,481.5 342,481.5C 341.055,481.905 340.388,482.572 340,483.5C 338.967,480.967 337.133,479.301 334.5,478.5C 333.571,477.311 333.238,475.978 333.5,474.5C 354.367,474.837 374.701,478.004 394.5,484C 400.652,486.779 401.652,490.779 397.5,496C 390.055,498.86 382.389,501.193 374.5,503C 363.393,503.797 352.393,505.131 341.5,507C 326.332,507.204 311.332,508.204 296.5,510C 260.5,510.667 224.5,510.667 188.5,510C 173.34,508.098 158.007,507.098 142.5,507C 127.003,505.143 111.67,502.477 96.5,499C 93.2744,497.802 90.4411,495.969 88,493.5C 86.9432,489.114 88.4432,485.947 92.5,484C 110.708,478.658 129.374,475.492 148.5,474.5 Z"/></g>
</svg>
