<?xml version="1.0" encoding="UTF-8"?>
<!DOCTYPE svg PUBLIC "-//W3C//DTD SVG 1.1//EN" "http://www.w3.org/Graphics/SVG/1.1/DTD/svg11.dtd">
<svg xmlns="http://www.w3.org/2000/svg" version="1.1" width="192px" height="192px" style="shape-rendering:geometricPrecision; text-rendering:geometricPrecision; image-rendering:optimizeQuality; fill-rule:evenodd; clip-rule:evenodd" xmlns:xlink="http://www.w3.org/1999/xlink">
<g><path style="opacity:0.588" fill="#f1d178" d="M 98.5,-0.5 C 100.833,-0.5 103.167,-0.5 105.5,-0.5C 104.53,2.66108 102.863,5.49442 100.5,8C 104,6.73035 107.667,6.06368 111.5,6C 112.612,8.10791 111.946,9.60791 109.5,10.5C 109.5,9.5 109.5,8.5 109.5,7.5C 103.302,8.17923 98.4687,11.1792 95,16.5C 95.5983,10.9776 98.0983,6.31097 102.5,2.5C 99.7025,1.59216 97.2025,2.25883 95,4.5C 94.5357,3.90558 94.369,3.23891 94.5,2.5C 95.8717,1.48837 97.205,0.488369 98.5,-0.5 Z"/></g>
<g><path style="opacity:0.945" fill="#efc95d" d="M 93.5,3.5 C 91.2409,8.18761 89.7409,13.1876 89,18.5C 87.294,16.2951 85.794,13.9617 84.5,11.5C 83.52,14.0865 83.1866,16.7531 83.5,19.5C 83.1667,19.5 82.8333,19.5 82.5,19.5C 80.0078,14.4076 80.3411,9.40756 83.5,4.5C 84.2739,3.28882 85.1072,3.28882 86,4.5C 86.3457,7.57552 87.0124,10.5755 88,13.5C 89.0666,9.69654 90.8999,6.36321 93.5,3.5 Z"/></g>
<g><path style="opacity:1" fill="#f6c237" d="M 109.5,10.5 C 107.833,13.5 105.5,15.8333 102.5,17.5C 100.336,17.7215 98.6697,18.7215 97.5,20.5C 92.6042,22.1208 87.9375,21.7875 83.5,19.5C 83.1866,16.7531 83.52,14.0865 84.5,11.5C 85.794,13.9617 87.294,16.2951 89,18.5C 89.7409,13.1876 91.2409,8.18761 93.5,3.5C 93.5,2.83333 93.8333,2.5 94.5,2.5C 94.369,3.23891 94.5357,3.90558 95,4.5C 97.2025,2.25883 99.7025,1.59216 102.5,2.5C 98.0983,6.31097 95.5983,10.9776 95,16.5C 98.4687,11.1792 103.302,8.17923 109.5,7.5C 109.5,8.5 109.5,9.5 109.5,10.5 Z"/></g>
<g><path style="opacity:0.467" fill="#f4e289" d="M 102.5,17.5 C 102.047,18.4584 101.381,19.2917 100.5,20C 106.621,20.7633 112.287,22.5967 117.5,25.5C 117.44,26.0431 117.107,26.3764 116.5,26.5C 113.044,24.7194 109.378,23.7194 105.5,23.5C 103.369,22.6862 101.036,22.1862 98.5,22C 97.944,21.6174 97.6107,21.1174 97.5,20.5C 98.6697,18.7215 100.336,17.7215 102.5,17.5 Z"/></g>
<g><path style="opacity:1" fill="#f9db57" d="M 105.5,23.5 C 109.378,23.7194 113.044,24.7194 116.5,26.5C 117.107,26.3764 117.44,26.0431 117.5,25.5C 118.492,25.3284 119.158,25.6618 119.5,26.5C 118.45,26.9046 118.45,27.5712 119.5,28.5C 127.846,33.1028 134.013,39.7695 138,48.5C 138.333,50.8333 138.667,53.1667 139,55.5C 141.31,57.1374 142.81,59.304 143.5,62C 142.207,62.49 140.873,62.6567 139.5,62.5C 138.153,63.0283 136.819,63.195 135.5,63C 135.344,59.8914 135.677,56.7247 136.5,53.5C 134.833,53.5 133.167,53.5 131.5,53.5C 131.108,56.1457 131.108,58.6457 131.5,61C 128.865,62.9605 127.031,65.4605 126,68.5C 125.922,66.3435 125.755,64.3435 125.5,62.5C 123.146,63.0601 120.813,63.7267 118.5,64.5C 119.841,67.8407 122.174,70.174 125.5,71.5C 126.167,71.1667 126.833,70.8333 127.5,70.5C 128.652,73.1062 128.818,75.7728 128,78.5C 126.882,71.0038 125.715,70.8371 124.5,78C 125.634,79.016 125.301,79.6827 123.5,80C 123.833,80.3333 124.167,80.6667 124.5,81C 122.937,81.7589 121.937,82.9256 121.5,84.5C 118.825,85.1029 116.492,86.4362 114.5,88.5C 114.511,86.9826 115.177,85.8159 116.5,85C 112.789,84.8253 109.122,84.3253 105.5,83.5C 106.61,78.8332 105.777,74.4999 103,70.5C 102.849,73.1193 102.015,75.4527 100.5,77.5C 101.246,78.7362 101.579,80.0695 101.5,81.5C 99.8333,80.5 98.5,79.1667 97.5,77.5C 96.305,74.7889 94.4717,72.4555 92,70.5C 89.8992,71.6145 87.7325,71.6145 85.5,70.5C 82.1952,71.2563 80.8618,73.0897 81.5,76C 78.7352,77.0971 77.0686,79.0971 76.5,82C 75.1807,82.195 73.8474,82.0283 72.5,81.5C 70.4057,83.3751 68.0724,83.7084 65.5,82.5C 64.5084,82.6716 63.8417,82.3382 63.5,81.5C 61.7315,78.4079 61.2315,75.0745 62,71.5C 62.5,69.6667 63.6667,68.5 65.5,68C 64.6721,67.0853 63.6721,66.4186 62.5,66C 63.6721,65.5814 64.6721,64.9147 65.5,64C 63.5594,63.2571 61.7261,63.4238 60,64.5C 59.3333,63.5 59.3333,62.5 60,61.5C 61.7216,61.0385 63.555,60.8718 65.5,61C 65.8333,60 66.1667,59 66.5,58C 69.146,57.5026 71.8127,57.3359 74.5,57.5C 74.5,56.1667 74.5,54.8333 74.5,53.5C 68.5,53.5 62.5,53.5 56.5,53.5C 57.9177,55.4759 58.4177,58.1425 58,61.5C 56.951,63.1066 55.451,63.7733 53.5,63.5C 53.5,62.1667 53.5,60.8333 53.5,59.5C 50.8609,59.4292 48.6942,58.4292 47,56.5C 45.3594,58.0446 44.1928,57.7113 43.5,55.5C 44.853,54.3147 46.0197,52.9814 47,51.5C 47.6667,52.1667 48.3333,52.8333 49,53.5C 49.5374,50.8128 49.0374,48.3128 47.5,46C 52.3318,42.515 54.4985,43.6816 54,49.5C 56.1718,48.4911 57.3385,46.8244 57.5,44.5C 59.5273,44.6621 61.5273,44.4955 63.5,44C 62.376,43.7508 61.376,43.2508 60.5,42.5C 61.7598,41.6184 62.9264,40.6184 64,39.5C 64.3333,40.5 64.6667,41.5 65,42.5C 67.7892,39.0586 69.1225,35.0586 69,30.5C 69.5613,29.9781 70.228,29.6448 71,29.5C 74.7193,31.4734 78.5526,33.1401 82.5,34.5C 84.0212,33.0627 85.8546,32.396 88,32.5C 93.6782,34.0283 99.5115,35.1949 105.5,36C 103.314,36.6036 103.148,37.7703 105,39.5C 106.34,38.1322 107.674,36.7989 109,35.5C 111.009,35.9949 113.176,35.9949 115.5,35.5C 115.587,32.4017 115.087,32.0684 114,34.5C 113.691,33.2341 113.191,32.0674 112.5,31C 108.962,28.7315 105.295,26.7315 101.5,25C 102.901,24.5899 104.234,24.0899 105.5,23.5 Z"/></g>
<g><path style="opacity:1" fill="#fbda55" d="M 83.5,19.5 C 87.9375,21.7875 92.6042,22.1208 97.5,20.5C 97.6107,21.1174 97.944,21.6174 98.5,22C 101.036,22.1862 103.369,22.6862 105.5,23.5C 104.234,24.0899 102.901,24.5899 101.5,25C 105.295,26.7315 108.962,28.7315 112.5,31C 113.191,32.0674 113.691,33.2341 114,34.5C 115.087,32.0684 115.587,32.4017 115.5,35.5C 113.176,35.9949 111.009,35.9949 109,35.5C 107.674,36.7989 106.34,38.1322 105,39.5C 103.148,37.7703 103.314,36.6036 105.5,36C 99.5115,35.1949 93.6782,34.0283 88,32.5C 85.8546,32.396 84.0212,33.0627 82.5,34.5C 78.5526,33.1401 74.7193,31.4734 71,29.5C 70.228,29.6448 69.5613,29.9781 69,30.5C 69.1225,35.0586 67.7892,39.0586 65,42.5C 64.6667,41.5 64.3333,40.5 64,39.5C 62.9264,40.6184 61.7598,41.6184 60.5,42.5C 61.376,43.2508 62.376,43.7508 63.5,44C 61.5273,44.4955 59.5273,44.6621 57.5,44.5C 57.3385,46.8244 56.1718,48.4911 54,49.5C 54.4985,43.6816 52.3318,42.515 47.5,46C 49.0374,48.3128 49.5374,50.8128 49,53.5C 48.3333,52.8333 47.6667,52.1667 47,51.5C 46.0197,52.9814 44.853,54.3147 43.5,55.5C 44.1928,57.7113 45.3594,58.0446 47,56.5C 48.6942,58.4292 50.8609,59.4292 53.5,59.5C 53.5,60.8333 53.5,62.1667 53.5,63.5C 55.451,63.7733 56.951,63.1066 58,61.5C 58.4177,58.1425 57.9177,55.4759 56.5,53.5C 62.5,53.5 68.5,53.5 74.5,53.5C 74.5,54.8333 74.5,56.1667 74.5,57.5C 71.8127,57.3359 69.146,57.5026 66.5,58C 66.1667,59 65.8333,60 65.5,61C 63.555,60.8718 61.7216,61.0385 60,61.5C 59.3333,62.5 59.3333,63.5 60,64.5C 61.7261,63.4238 63.5594,63.2571 65.5,64C 64.6721,64.9147 63.6721,65.5814 62.5,66C 63.6721,66.4186 64.6721,67.0853 65.5,68C 63.6667,68.5 62.5,69.6667 62,71.5C 61.2315,75.0745 61.7315,78.4079 63.5,81.5C 58.7593,80.9626 54.426,81.9626 50.5,84.5C 47.656,88.4407 47.9893,92.1073 51.5,95.5C 58.7047,98.8435 65.3713,98.1769 71.5,93.5C 72.724,91.1725 72.724,88.8392 71.5,86.5C 69.2894,85.3405 67.2894,84.0072 65.5,82.5C 68.0724,83.7084 70.4057,83.3751 72.5,81.5C 73.8474,82.0283 75.1807,82.195 76.5,82C 77.0686,79.0971 78.7352,77.0971 81.5,76C 80.8618,73.0897 82.1952,71.2563 85.5,70.5C 87.7325,71.6145 89.8992,71.6145 92,70.5C 94.4717,72.4555 96.305,74.7889 97.5,77.5C 92.3191,75.5069 88.1524,76.8403 85,81.5C 84.2599,82.7494 84.4265,83.7494 85.5,84.5C 87.2177,87.2838 89.3843,89.6171 92,91.5C 95.9808,89.6221 99.1474,86.9554 101.5,83.5C 101.5,82.8333 101.5,82.1667 101.5,81.5C 101.579,80.0695 101.246,78.7362 100.5,77.5C 102.015,75.4527 102.849,73.1193 103,70.5C 105.777,74.4999 106.61,78.8332 105.5,83.5C 109.122,84.3253 112.789,84.8253 116.5,85C 115.177,85.8159 114.511,86.9826 114.5,88.5C 113.371,90.6282 113.204,92.9615 114,95.5C 115.376,96.7051 116.542,98.0384 117.5,99.5C 115.856,98.6343 114.189,98.1343 112.5,98C 110.215,100.426 108.215,103.093 106.5,106C 107.931,106.465 109.097,107.299 110,108.5C 111.574,105.423 114.074,103.757 117.5,103.5C 117.807,109.168 116.307,110.168 113,106.5C 113.175,109.765 115.009,111.765 118.5,112.5C 118.291,113.086 117.957,113.586 117.5,114C 119.167,114.667 120.833,114.667 122.5,114C 121.484,113.481 120.818,112.647 120.5,111.5C 121.754,109.666 122.421,107.666 122.5,105.5C 126.296,104.292 129.796,104.959 133,107.5C 133.967,106.322 134.467,104.989 134.5,103.5C 135.85,104.95 137.516,105.617 139.5,105.5C 139.072,109.275 139.739,112.775 141.5,116C 140.968,118.02 139.635,118.853 137.5,118.5C 136.506,121.319 135.506,124.153 134.5,127C 132.19,127.497 129.857,127.663 127.5,127.5C 127.297,129.39 127.963,130.89 129.5,132C 127.892,132.658 126.725,132.158 126,130.5C 125.517,131.448 125.351,132.448 125.5,133.5C 124.065,131.402 122.898,129.069 122,126.5C 119.108,125.158 117.775,122.825 118,119.5C 115.876,118.378 114.043,116.878 112.5,115C 84.8557,104.677 67.189,113.677 59.5,142C 61.0072,144.43 63.0072,146.264 65.5,147.5C 59.7019,144.767 54.0353,141.767 48.5,138.5C 37.9401,128.047 31.6068,115.38 29.5,100.5C 30.1174,100.389 30.6174,100.056 31,99.5C 31.2979,87.9192 32.9646,76.5858 36,65.5C 38.2737,58.2859 41.607,51.6192 46,45.5C 51.9171,39.2453 58.0838,33.412 64.5,28C 69.7923,25.2579 75.459,23.5912 81.5,23C 82.9733,22.2904 83.6399,21.1238 83.5,19.5 Z"/></g>
<g><path style="opacity:0.757" fill="#f1db77" d="M 82.5,19.5 C 82.8333,19.5 83.1667,19.5 83.5,19.5C 83.6399,21.1238 82.9733,22.2904 81.5,23C 75.459,23.5912 69.7923,25.2579 64.5,28C 58.0838,33.412 51.9171,39.2453 46,45.5C 41.607,51.6192 38.2737,58.2859 36,65.5C 32.9646,76.5858 31.2979,87.9192 31,99.5C 30.6174,100.056 30.1174,100.389 29.5,100.5C 27.6336,99.9862 25.8003,99.3195 24,98.5C 22.4009,99.0707 21.2342,100.071 20.5,101.5C 19.9147,98.7395 20.9147,97.0728 23.5,96.5C 25.4366,97.2604 27.2699,98.2604 29,99.5C 28.4098,78.7552 33.7431,59.7552 45,42.5C 55.0169,30.5844 67.5169,22.9177 82.5,19.5 Z"/></g>
<g><path style="opacity:1" fill="#f6dc68" d="M 119.5,26.5 C 130.34,32.8428 138.173,41.8428 143,53.5C 149.598,68.4642 152.765,84.1309 152.5,100.5C 154.565,100.483 156.565,100.15 158.5,99.5C 157.713,101.104 156.38,101.771 154.5,101.5C 153.167,101.5 151.833,101.5 150.5,101.5C 150.477,99.0733 149.977,96.74 149,94.5C 148.667,95.1667 148.333,95.8333 148,96.5C 148.907,86.6624 147.907,76.9957 145,67.5C 144.346,66.3044 143.846,66.3044 143.5,67.5C 145.461,73.3194 145.961,79.6527 145,86.5C 144.685,83.6285 144.185,80.7952 143.5,78C 143.645,77.228 143.978,76.5613 144.5,76C 141.884,75.1038 139.55,73.7705 137.5,72C 138.67,70.4134 139.67,68.7467 140.5,67C 139.376,66.7508 138.376,66.2508 137.5,65.5C 138.612,64.7348 139.279,63.7348 139.5,62.5C 140.873,62.6567 142.207,62.49 143.5,62C 142.81,59.304 141.31,57.1374 139,55.5C 138.667,53.1667 138.333,50.8333 138,48.5C 134.013,39.7695 127.846,33.1028 119.5,28.5C 118.45,27.5712 118.45,26.9046 119.5,26.5 Z"/></g>
<g><path style="opacity:1" fill="#cec7bf" d="M 67.5,68.5 C 68.5,68.5 69.5,68.5 70.5,68.5C 70.2153,72.8111 68.5487,73.4778 65.5,70.5C 65.8333,69.5 66.5,68.8333 67.5,68.5 Z"/></g>
<g><path style="opacity:1" fill="#21110b" d="M 72.5,81.5 C 70.5328,81.7394 68.6995,81.4061 67,80.5C 65.6842,77.3117 65.1842,73.9783 65.5,70.5C 68.5487,73.4778 70.2153,72.8111 70.5,68.5C 69.5,68.5 68.5,68.5 67.5,68.5C 70.1785,65.7774 72.6785,66.1107 75,69.5C 76.2266,74.062 75.3933,78.062 72.5,81.5 Z"/></g>
<g><path style="opacity:1" fill="#f37c13" d="M 97.5,77.5 C 98.5,79.1667 99.8333,80.5 101.5,81.5C 101.5,82.1667 101.5,82.8333 101.5,83.5C 95.9738,83.1786 90.6405,83.5119 85.5,84.5C 84.4265,83.7494 84.2599,82.7494 85,81.5C 88.1524,76.8403 92.3191,75.5069 97.5,77.5 Z"/></g>
<g><path style="opacity:1" fill="#331f17" d="M 111.5,68.5 C 117.844,68.9274 120.344,72.2607 119,78.5C 115.667,83.8333 112.333,83.8333 109,78.5C 108.024,74.673 108.857,71.3396 111.5,68.5 Z"/></g>
<g><path style="opacity:1" fill="#e9e6e3" d="M 111.5,70.5 C 112.995,70.4148 113.995,71.0815 114.5,72.5C 113.68,74.1112 112.346,74.7778 110.5,74.5C 110.433,73.0413 110.766,71.7079 111.5,70.5 Z"/></g>
<g><path style="opacity:1" fill="#d53807" d="M 101.5,83.5 C 99.1474,86.9554 95.9808,89.6221 92,91.5C 89.3843,89.6171 87.2177,87.2838 85.5,84.5C 90.6405,83.5119 95.9738,83.1786 101.5,83.5 Z"/></g>
<g><path style="opacity:1" fill="#faaf57" d="M 121.5,84.5 C 126.08,84.1134 130.414,84.9468 134.5,87C 137.505,91.6388 136.839,95.6388 132.5,99C 127.511,99.4993 122.511,99.6659 117.5,99.5C 116.542,98.0384 115.376,96.7051 114,95.5C 113.204,92.9615 113.371,90.6282 114.5,88.5C 116.492,86.4362 118.825,85.1029 121.5,84.5 Z"/></g>
<g><path style="opacity:1" fill="#fbd954" d="M 139.5,62.5 C 139.279,63.7348 138.612,64.7348 137.5,65.5C 138.376,66.2508 139.376,66.7508 140.5,67C 139.67,68.7467 138.67,70.4134 137.5,72C 139.55,73.7705 141.884,75.1038 144.5,76C 143.978,76.5613 143.645,77.228 143.5,78C 144.185,80.7952 144.685,83.6285 145,86.5C 145.961,79.6527 145.461,73.3194 143.5,67.5C 143.846,66.3044 144.346,66.3044 145,67.5C 147.907,76.9957 148.907,86.6624 148,96.5C 148.333,95.8333 148.667,95.1667 149,94.5C 149.977,96.74 150.477,99.0733 150.5,101.5C 151.833,101.5 153.167,101.5 154.5,101.5C 153.081,102.451 151.415,102.784 149.5,102.5C 149.469,107.625 148.636,112.625 147,117.5C 143.581,121.331 140.914,125.665 139,130.5C 135.921,134.742 132.421,138.409 128.5,141.5C 127.833,141.5 127.167,141.5 126.5,141.5C 126.806,138.615 126.473,135.948 125.5,133.5C 125.351,132.448 125.517,131.448 126,130.5C 126.725,132.158 127.892,132.658 129.5,132C 127.963,130.89 127.297,129.39 127.5,127.5C 129.857,127.663 132.19,127.497 134.5,127C 135.506,124.153 136.506,121.319 137.5,118.5C 139.635,118.853 140.968,118.02 141.5,116C 139.739,112.775 139.072,109.275 139.5,105.5C 137.516,105.617 135.85,104.95 134.5,103.5C 134.467,104.989 133.967,106.322 133,107.5C 129.796,104.959 126.296,104.292 122.5,105.5C 122.421,107.666 121.754,109.666 120.5,111.5C 120.818,112.647 121.484,113.481 122.5,114C 120.833,114.667 119.167,114.667 117.5,114C 117.957,113.586 118.291,113.086 118.5,112.5C 115.009,111.765 113.175,109.765 113,106.5C 116.307,110.168 117.807,109.168 117.5,103.5C 114.074,103.757 111.574,105.423 110,108.5C 109.097,107.299 107.931,106.465 106.5,106C 108.215,103.093 110.215,100.426 112.5,98C 114.189,98.1343 115.856,98.6343 117.5,99.5C 122.511,99.6659 127.511,99.4993 132.5,99C 136.839,95.6388 137.505,91.6388 134.5,87C 130.414,84.9468 126.08,84.1134 121.5,84.5C 121.937,82.9256 122.937,81.7589 124.5,81C 124.167,80.6667 123.833,80.3333 123.5,80C 125.301,79.6827 125.634,79.016 124.5,78C 125.715,70.8371 126.882,71.0038 128,78.5C 128.818,75.7728 128.652,73.1062 127.5,70.5C 126.833,70.8333 126.167,71.1667 125.5,71.5C 122.174,70.174 119.841,67.8407 118.5,64.5C 120.813,63.7267 123.146,63.0601 125.5,62.5C 125.755,64.3435 125.922,66.3435 126,68.5C 127.031,65.4605 128.865,62.9605 131.5,61C 131.108,58.6457 131.108,56.1457 131.5,53.5C 133.167,53.5 134.833,53.5 136.5,53.5C 135.677,56.7247 135.344,59.8914 135.5,63C 136.819,63.195 138.153,63.0283 139.5,62.5 Z"/></g>
<g><path style="opacity:1" fill="#fab153" d="M 63.5,81.5 C 63.8417,82.3382 64.5084,82.6716 65.5,82.5C 67.2894,84.0072 69.2894,85.3405 71.5,86.5C 72.724,88.8392 72.724,91.1725 71.5,93.5C 65.3713,98.1769 58.7047,98.8435 51.5,95.5C 47.9893,92.1073 47.656,88.4407 50.5,84.5C 54.426,81.9626 58.7593,80.9626 63.5,81.5 Z"/></g>
<g><path style="opacity:1" fill="#fbe583" d="M 125.5,133.5 C 126.473,135.948 126.806,138.615 126.5,141.5C 124.071,144.219 121.071,146.219 117.5,147.5C 100.04,152.75 82.7068,152.75 65.5,147.5C 63.0072,146.264 61.0072,144.43 59.5,142C 67.189,113.677 84.8557,104.677 112.5,115C 114.043,116.878 115.876,118.378 118,119.5C 117.775,122.825 119.108,125.158 122,126.5C 122.898,129.069 124.065,131.402 125.5,133.5 Z"/></g>
<g><path style="opacity:0.999" fill="#f8ae27" d="M 153.5,128.5 C 150.5,128.5 147.5,128.5 144.5,128.5C 141.32,139.178 134.986,147.512 125.5,153.5C 126.516,150.8 126.516,148.134 125.5,145.5C 126.524,144.148 127.524,142.815 128.5,141.5C 132.421,138.409 135.921,134.742 139,130.5C 140.914,125.665 143.581,121.331 147,117.5C 148.636,112.625 149.469,107.625 149.5,102.5C 151.415,102.784 153.081,102.451 154.5,101.5C 156.38,101.771 157.713,101.104 158.5,99.5C 160.515,98.0762 162.848,97.4095 165.5,97.5C 166.216,102.371 164.883,106.537 161.5,110C 164.242,116.014 162.242,120.014 155.5,122C 157.938,124.983 157.271,127.15 153.5,128.5 Z"/></g>
<g><path style="opacity:1" fill="#f8b02c" d="M 29.5,100.5 C 31.6068,115.38 37.9401,128.047 48.5,138.5C 50.5843,142.142 53.7509,144.476 58,145.5C 59.7725,152.237 57.6059,154.403 51.5,152C 47.8569,148.27 44.3569,144.437 41,140.5C 38.9893,135.688 36.8227,131.021 34.5,126.5C 33.3112,125.571 31.9778,125.238 30.5,125.5C 26.8606,124.888 25.8606,122.888 27.5,119.5C 24.5267,117.702 22.5267,115.202 21.5,112C 21.8443,110.635 22.5109,109.468 23.5,108.5C 22.2122,106.261 21.2122,103.928 20.5,101.5C 21.2342,100.071 22.4009,99.0707 24,98.5C 25.8003,99.3195 27.6336,99.9862 29.5,100.5 Z"/></g>
<g><path style="opacity:1" fill="#f9bc47" d="M 30.5,125.5 C 31.9778,125.238 33.3112,125.571 34.5,126.5C 36.8227,131.021 38.9893,135.688 41,140.5C 44.3569,144.437 47.8569,148.27 51.5,152C 57.6059,154.403 59.7725,152.237 58,145.5C 53.7509,144.476 50.5843,142.142 48.5,138.5C 54.0353,141.767 59.7019,144.767 65.5,147.5C 82.7068,152.75 100.04,152.75 117.5,147.5C 121.071,146.219 124.071,144.219 126.5,141.5C 127.167,141.5 127.833,141.5 128.5,141.5C 127.524,142.815 126.524,144.148 125.5,145.5C 126.516,148.134 126.516,150.8 125.5,153.5C 118.154,155.977 110.654,157.977 103,159.5C 102.055,159.095 101.388,158.428 101,157.5C 98.595,158.274 96.095,158.774 93.5,159C 93.8333,159.333 94.1667,159.667 94.5,160C 86.8406,160.5 79.1739,160.666 71.5,160.5C 70.0813,159.549 68.4147,159.216 66.5,159.5C 66.1667,159.5 65.8333,159.5 65.5,159.5C 54.9343,156.965 46.4343,151.298 40,142.5C 36.8016,136.762 33.635,131.095 30.5,125.5 Z"/></g>
<g><path style="opacity:0.998" fill="#f1bd60" d="M 153.5,128.5 C 151.55,130.026 149.217,131.026 146.5,131.5C 140.071,146.93 128.738,156.596 112.5,160.5C 112.051,163.044 112.051,165.71 112.5,168.5C 111.232,166.095 110.565,163.428 110.5,160.5C 109.167,160.5 107.833,160.5 106.5,160.5C 106.815,164.371 106.482,168.038 105.5,171.5C 105.82,168.102 105.487,164.768 104.5,161.5C 93.8603,162.702 83.1936,162.702 72.5,161.5C 72.3227,165.234 72.6561,168.901 73.5,172.5C 71.5772,168.971 70.9106,164.971 71.5,160.5C 79.1739,160.666 86.8406,160.5 94.5,160C 94.1667,159.667 93.8333,159.333 93.5,159C 96.095,158.774 98.595,158.274 101,157.5C 101.388,158.428 102.055,159.095 103,159.5C 110.654,157.977 118.154,155.977 125.5,153.5C 134.986,147.512 141.32,139.178 144.5,128.5C 147.5,128.5 150.5,128.5 153.5,128.5 Z"/></g>
<g><path style="opacity:0.161" fill="#cf743e" d="M 65.5,159.5 C 65.8333,159.5 66.1667,159.5 66.5,159.5C 66.6658,164.179 66.4992,168.845 66,173.5C 61.9885,175.014 59.1551,177.681 57.5,181.5C 56.9033,181.265 56.5699,180.765 56.5,180C 56.9783,178.697 57.645,177.531 58.5,176.5C 60.5551,175.052 62.7218,173.719 65,172.5C 65.499,168.179 65.6657,163.846 65.5,159.5 Z"/></g>
<g><path style="opacity:0.999" fill="#efd2a7" d="M 100.5,176.5 C 99.962,178.117 99.6287,179.784 99.5,181.5C 100.873,181.657 102.207,181.49 103.5,181C 104.927,179.203 106.76,178.036 109,177.5C 111.014,179.571 113.014,181.571 115,183.5C 117.5,182.667 118,181.167 116.5,179C 118.81,178.503 121.143,178.337 123.5,178.5C 123.5,177.5 123.5,176.5 123.5,175.5C 131.821,177.162 140.154,178.995 148.5,181C 150.154,185.381 148.488,187.714 143.5,188C 134.746,189.593 126.079,190.759 117.5,191.5C 99.8333,191.5 82.1667,191.5 64.5,191.5C 55.9208,190.759 47.2541,189.593 38.5,188C 31.609,186.448 30.9423,183.781 36.5,180C 43.8009,178.506 51.1342,177.34 58.5,176.5C 57.645,177.531 56.9783,178.697 56.5,180C 56.5699,180.765 56.9033,181.265 57.5,181.5C 60.8333,180.5 64.1667,179.5 67.5,178.5C 67.8333,180.5 68.1667,182.5 68.5,184.5C 69.8333,184.5 71.1667,184.5 72.5,184.5C 72.2011,182.396 72.5344,180.396 73.5,178.5C 75.9911,181.416 78.9911,182.082 82.5,180.5C 81.4756,179.148 80.4756,177.815 79.5,176.5C 86.513,175.207 93.513,175.207 100.5,176.5 Z"/></g>
<g><path style="opacity:1" fill="#de5418" d="M 112.5,168.5 C 112.414,169.496 112.748,170.329 113.5,171C 117.061,172.232 120.394,173.732 123.5,175.5C 123.5,176.5 123.5,177.5 123.5,178.5C 121.143,178.337 118.81,178.503 116.5,179C 118,181.167 117.5,182.667 115,183.5C 113.014,181.571 111.014,179.571 109,177.5C 106.76,178.036 104.927,179.203 103.5,181C 102.207,181.49 100.873,181.657 99.5,181.5C 99.6287,179.784 99.962,178.117 100.5,176.5C 101.833,174.5 103.5,172.833 105.5,171.5C 106.482,168.038 106.815,164.371 106.5,160.5C 107.833,160.5 109.167,160.5 110.5,160.5C 110.565,163.428 111.232,166.095 112.5,168.5 Z"/></g>
<g><path style="opacity:1" fill="#de4e0f" d="M 66.5,159.5 C 68.4147,159.216 70.0813,159.549 71.5,160.5C 70.9106,164.971 71.5772,168.971 73.5,172.5C 76.1473,172.929 78.1473,174.262 79.5,176.5C 80.4756,177.815 81.4756,179.148 82.5,180.5C 78.9911,182.082 75.9911,181.416 73.5,178.5C 72.5344,180.396 72.2011,182.396 72.5,184.5C 71.1667,184.5 69.8333,184.5 68.5,184.5C 68.1667,182.5 67.8333,180.5 67.5,178.5C 64.1667,179.5 60.8333,180.5 57.5,181.5C 59.1551,177.681 61.9885,175.014 66,173.5C 66.4992,168.845 66.6658,164.179 66.5,159.5 Z"/></g>
</svg>
