<?xml version="1.0" encoding="UTF-8"?>
<!DOCTYPE svg PUBLIC "-//W3C//DTD SVG 1.1//EN" "http://www.w3.org/Graphics/SVG/1.1/DTD/svg11.dtd">
<svg xmlns="http://www.w3.org/2000/svg" version="1.1" width="180px" height="180px" style="shape-rendering:geometricPrecision; text-rendering:geometricPrecision; image-rendering:optimizeQuality; fill-rule:evenodd; clip-rule:evenodd" xmlns:xlink="http://www.w3.org/1999/xlink">
<g><path style="opacity:1" fill="#f5c444" d="M 92.5,-0.5 C 94.5,-0.5 96.5,-0.5 98.5,-0.5C 97.6473,2.36804 96.314,5.03471 94.5,7.5C 92.0673,8.54773 92.0673,9.2144 94.5,9.5C 96.4352,8.85048 98.4352,8.51715 100.5,8.5C 99.5873,11.078 98.254,13.4113 96.5,15.5C 96.4431,16.609 96.1098,17.609 95.5,18.5C 93.901,18.2322 92.5676,18.5655 91.5,19.5C 87.8183,19.6653 84.1516,19.4986 80.5,19C 78.9062,15.9518 77.2395,13.1185 75.5,10.5C 76.0904,7.71462 77.4237,5.38128 79.5,3.5C 80.086,3.70931 80.586,4.04265 81,4.5C 81.2414,7.28894 81.908,9.95561 83,12.5C 84.0953,6.58239 87.2619,2.24906 92.5,-0.5 Z"/></g>
<g><path style="opacity:0.949" fill="#f1cc66" d="M 96.5,15.5 C 98.254,13.4113 99.5873,11.078 100.5,8.5C 98.4352,8.51715 96.4352,8.85048 94.5,9.5C 94.5,8.83333 94.5,8.16667 94.5,7.5C 97.1484,6.8379 99.8151,6.17123 102.5,5.5C 104,5.4528 105,6.11947 105.5,7.5C 103.08,10.9257 100.08,13.5924 96.5,15.5 Z"/></g>
<g><path style="opacity:0.902" fill="#f3df82" d="M 95.5,18.5 C 107.415,20.4315 117.081,26.0982 124.5,35.5C 120.226,32.3519 115.892,29.1852 111.5,26C 105.443,23.3214 99.1101,21.6547 92.5,21C 91.944,20.6174 91.6107,20.1174 91.5,19.5C 92.5676,18.5655 93.901,18.2322 95.5,18.5 Z"/></g>
<g><path style="opacity:1" fill="#fadb57" d="M 75.5,10.5 C 77.2395,13.1185 78.9062,15.9518 80.5,19C 84.1516,19.4986 87.8183,19.6653 91.5,19.5C 91.6107,20.1174 91.944,20.6174 92.5,21C 99.1101,21.6547 105.443,23.3214 111.5,26C 115.892,29.1852 120.226,32.3519 124.5,35.5C 126.853,37.8599 128.853,40.5265 130.5,43.5C 129.596,44.209 129.263,45.209 129.5,46.5C 127.557,47.0783 127.223,48.0783 128.5,49.5C 126.955,50.4519 125.288,50.7852 123.5,50.5C 123.014,52.8067 123.014,54.9734 123.5,57C 120.897,58.9362 119.064,61.4362 118,64.5C 117.922,62.3435 117.755,60.3435 117.5,58.5C 115.465,59.0412 113.465,59.7078 111.5,60.5C 112.667,62.1667 113.833,63.8333 115,65.5C 115.333,65.1667 115.667,64.8333 116,64.5C 118.087,68.2245 117.92,71.7245 115.5,75C 115.833,75.3333 116.167,75.6667 116.5,76C 114.473,77.8793 112.14,79.046 109.5,79.5C 106.904,80.2653 104.237,80.5987 101.5,80.5C 100.253,75.7042 98.5861,71.0375 96.5,66.5C 95.7022,68.0777 95.2022,69.7444 95,71.5C 93.8595,69.9222 93.3595,68.2555 93.5,66.5C 91.9579,67.7468 90.4579,67.7468 89,66.5C 86.3082,68.6473 83.6415,68.3139 81,65.5C 78.8542,66.3758 77.0208,67.7091 75.5,69.5C 76.8177,71.9122 76.651,74.2456 75,76.5C 73.7964,75.5294 73.2964,74.5294 73.5,73.5C 72.1239,74.8419 70.7906,76.1752 69.5,77.5C 67.604,78.4656 65.604,78.7989 63.5,78.5C 62.4863,77.3263 61.153,76.6596 59.5,76.5C 58.8629,73.544 58.3629,70.544 58,67.5C 57.6886,72.0587 56.8552,72.392 55.5,68.5C 56.1471,64.704 58.1471,61.8707 61.5,60C 57.1884,58.456 55.0217,59.956 55,64.5C 52.922,62.3194 53.0886,60.3194 55.5,58.5C 57.396,57.5344 59.396,57.2011 61.5,57.5C 61.33,56.1779 61.6634,55.0113 62.5,54C 64.8098,53.5034 67.1432,53.3367 69.5,53.5C 69.5,52.5 69.5,51.5 69.5,50.5C 63.8333,50.5 58.1667,50.5 52.5,50.5C 53.9177,52.4759 54.4177,55.1425 54,58.5C 52.9887,59.3366 51.8221,59.67 50.5,59.5C 50.5,58.1667 50.5,56.8333 50.5,55.5C 47.6748,55.8384 45.5082,54.8384 44,52.5C 43.2825,53.4506 42.4491,53.6172 41.5,53C 41.7937,51.3464 41.127,49.8464 39.5,48.5C 40.8371,45.3263 42.5038,42.3263 44.5,39.5C 48.6355,37.1983 51.9689,34.0317 54.5,30C 61.8062,25.328 69.8062,22.1613 78.5,20.5C 78.3764,19.8933 78.0431,19.56 77.5,19.5C 76.0712,16.6916 75.4045,13.6916 75.5,10.5 Z"/></g>
<g><path style="opacity:1" fill="#fada55" d="M 39.5,48.5 C 41.127,49.8464 41.7937,51.3464 41.5,53C 42.4491,53.6172 43.2825,53.4506 44,52.5C 45.5082,54.8384 47.6748,55.8384 50.5,55.5C 50.5,56.8333 50.5,58.1667 50.5,59.5C 51.8221,59.67 52.9887,59.3366 54,58.5C 54.4177,55.1425 53.9177,52.4759 52.5,50.5C 58.1667,50.5 63.8333,50.5 69.5,50.5C 69.5,51.5 69.5,52.5 69.5,53.5C 67.1432,53.3367 64.8098,53.5034 62.5,54C 61.6634,55.0113 61.33,56.1779 61.5,57.5C 59.396,57.2011 57.396,57.5344 55.5,58.5C 53.0886,60.3194 52.922,62.3194 55,64.5C 55.0217,59.956 57.1884,58.456 61.5,60C 58.1471,61.8707 56.1471,64.704 55.5,68.5C 56.8552,72.392 57.6886,72.0587 58,67.5C 58.3629,70.544 58.8629,73.544 59.5,76.5C 54.1174,75.605 49.4508,76.9383 45.5,80.5C 43.8948,84.8001 45.2282,87.9668 49.5,90C 55.9602,92.6754 61.7935,91.8421 67,87.5C 67.6667,85.1667 67.6667,82.8333 67,80.5C 65.6976,79.9152 64.531,79.2485 63.5,78.5C 65.604,78.7989 67.604,78.4656 69.5,77.5C 70.7906,76.1752 72.1239,74.8419 73.5,73.5C 73.2964,74.5294 73.7964,75.5294 75,76.5C 76.651,74.2456 76.8177,71.9122 75.5,69.5C 77.0208,67.7091 78.8542,66.3758 81,65.5C 83.6415,68.3139 86.3082,68.6473 89,66.5C 90.4579,67.7468 91.9579,67.7468 93.5,66.5C 93.3595,68.2555 93.8595,69.9222 95,71.5C 95.2022,69.7444 95.7022,68.0777 96.5,66.5C 98.5861,71.0375 100.253,75.7042 101.5,80.5C 104.237,80.5987 106.904,80.2653 109.5,79.5C 108.855,80.8118 107.855,81.8118 106.5,82.5C 105.348,85.1062 105.182,87.7728 106,90.5C 109.713,94.1455 110.546,98.1455 108.5,102.5C 107.833,101.833 107.167,101.167 106.5,100.5C 105.899,103.243 107.233,104.576 110.5,104.5C 110.281,105.675 110.614,106.675 111.5,107.5C 112.87,104.582 113.87,101.582 114.5,98.5C 117.518,98.3354 120.518,98.502 123.5,99C 124.5,101 125.5,101 126.5,99C 124.071,98.5488 123.904,97.7155 126,96.5C 127.11,98.0368 128.61,98.7035 130.5,98.5C 130.032,102.131 130.699,105.465 132.5,108.5C 131.68,110.111 130.346,110.778 128.5,110.5C 127.594,113.436 126.928,116.436 126.5,119.5C 124.167,119.5 121.833,119.5 119.5,119.5C 119.421,120.93 119.754,122.264 120.5,123.5C 119.388,124.265 118.721,125.265 118.5,126.5C 116.59,125.025 115.424,123.025 115,120.5C 111.528,116.693 108.028,112.859 104.5,109C 84.861,99.9457 69.361,104.446 58,122.5C 57.3855,127.015 56.5522,131.348 55.5,135.5C 47.6204,131.624 41.2871,125.957 36.5,118.5C 33.5025,112.188 30.8358,105.854 28.5,99.5C 28.0053,94.8911 25.3386,92.5578 20.5,92.5C 20.2322,94.099 20.5655,95.4324 21.5,96.5C 21.5,97.5 21.5,98.5 21.5,99.5C 19.615,97.2046 19.115,94.538 20,91.5C 20.5613,90.9781 21.228,90.6448 22,90.5C 23.8003,91.3195 25.6336,91.9862 27.5,92.5C 29.1872,81.7486 31.5205,70.4152 34.5,58.5C 36.1734,55.0182 37.8401,51.6849 39.5,48.5 Z"/></g>
<g><path style="opacity:0.451" fill="#f1de7c" d="M 77.5,19.5 C 78.0431,19.56 78.3764,19.8933 78.5,20.5C 69.8062,22.1613 61.8062,25.328 54.5,30C 51.9689,34.0317 48.6355,37.1983 44.5,39.5C 42.5038,42.3263 40.8371,45.3263 39.5,48.5C 37.8401,51.6849 36.1734,55.0182 34.5,58.5C 31.5205,70.4152 29.1872,81.7486 27.5,92.5C 26.4099,68.5903 34.0765,48.0903 50.5,31C 58.4379,24.7407 67.4379,20.9074 77.5,19.5 Z"/></g>
<g><path style="opacity:1" fill="#fbd954" d="M 129.5,46.5 C 137.823,59.8743 140.99,74.5409 139,90.5C 138.333,91.1667 137.667,91.8333 137,92.5C 136.107,91.2888 135.274,91.2888 134.5,92.5C 136.012,93.8625 137.512,94.1958 139,93.5C 139.464,94.0944 139.631,94.7611 139.5,95.5C 138.312,109.99 132.312,121.99 121.5,131.5C 120.609,132.11 119.609,132.443 118.5,132.5C 118.5,130.5 118.5,128.5 118.5,126.5C 118.721,125.265 119.388,124.265 120.5,123.5C 119.754,122.264 119.421,120.93 119.5,119.5C 121.833,119.5 124.167,119.5 126.5,119.5C 126.928,116.436 127.594,113.436 128.5,110.5C 130.346,110.778 131.68,110.111 132.5,108.5C 130.699,105.465 130.032,102.131 130.5,98.5C 128.61,98.7035 127.11,98.0368 126,96.5C 123.904,97.7155 124.071,98.5488 126.5,99C 125.5,101 124.5,101 123.5,99C 120.518,98.502 117.518,98.3354 114.5,98.5C 113.87,101.582 112.87,104.582 111.5,107.5C 110.614,106.675 110.281,105.675 110.5,104.5C 107.233,104.576 105.899,103.243 106.5,100.5C 107.167,101.167 107.833,101.833 108.5,102.5C 110.546,98.1455 109.713,94.1455 106,90.5C 105.182,87.7728 105.348,85.1062 106.5,82.5C 107.855,81.8118 108.855,80.8118 109.5,79.5C 112.14,79.046 114.473,77.8793 116.5,76C 116.167,75.6667 115.833,75.3333 115.5,75C 117.92,71.7245 118.087,68.2245 116,64.5C 115.667,64.8333 115.333,65.1667 115,65.5C 113.833,63.8333 112.667,62.1667 111.5,60.5C 113.465,59.7078 115.465,59.0412 117.5,58.5C 117.755,60.3435 117.922,62.3435 118,64.5C 119.064,61.4362 120.897,58.9362 123.5,57C 123.014,54.9734 123.014,52.8067 123.5,50.5C 125.288,50.7852 126.955,50.4519 128.5,49.5C 127.223,48.0783 127.557,47.0783 129.5,46.5 Z"/></g>
<g><path style="opacity:1" fill="#7f704a" d="M 68.5,63.5 C 67.209,63.2627 66.209,63.596 65.5,64.5C 63.9731,64.427 62.9731,65.0937 62.5,66.5C 62.1667,66.5 61.8333,66.5 61.5,66.5C 61.5743,64.5891 62.5743,63.4224 64.5,63C 66.0657,62.235 67.3991,62.4017 68.5,63.5 Z"/></g>
<g><path style="opacity:1" fill="#d9d5d2" d="M 65.5,64.5 C 66.7736,65.1894 66.7736,66.0228 65.5,67C 64.2506,67.7401 63.2506,67.5735 62.5,66.5C 62.9731,65.0937 63.9731,64.427 65.5,64.5 Z"/></g>
<g><path style="opacity:1" fill="#21120b" d="M 65.5,64.5 C 66.209,63.596 67.209,63.2627 68.5,63.5C 72.3665,67.474 72.3665,71.6406 68.5,76C 66.5594,76.7429 64.7261,76.5762 63,75.5C 61.7114,72.6492 61.2114,69.6492 61.5,66.5C 61.8333,66.5 62.1667,66.5 62.5,66.5C 63.2506,67.5735 64.2506,67.7401 65.5,67C 66.7736,66.0228 66.7736,65.1894 65.5,64.5 Z"/></g>
<g><path style="opacity:1" fill="#281711" d="M 104.5,64.5 C 107.044,64.1043 109.211,64.771 111,66.5C 111.929,70.2441 111.429,73.7441 109.5,77C 103.242,77.7015 100.742,74.8682 102,68.5C 102.48,66.867 103.313,65.5336 104.5,64.5 Z"/></g>
<g><path style="opacity:1" fill="#e0dbd6" d="M 103.5,66.5 C 104.5,66.5 105.5,66.5 106.5,66.5C 106.5,67.8333 106.5,69.1667 106.5,70.5C 105.5,70.5 104.5,70.5 103.5,70.5C 103.5,69.1667 103.5,67.8333 103.5,66.5 Z"/></g>
<g><path style="opacity:1" fill="#f67914" d="M 94.5,79.5 C 90.6776,78.6231 86.6776,77.9564 82.5,77.5C 80.9704,77.6399 79.9704,78.3065 79.5,79.5C 78.4265,78.7494 78.2599,77.7494 79,76.5C 84.7431,69.5788 90.0765,69.9122 95,77.5C 95.6917,78.4368 95.525,79.1034 94.5,79.5 Z"/></g>
<g><path style="opacity:1" fill="#fbaf56" d="M 59.5,76.5 C 61.153,76.6596 62.4863,77.3263 63.5,78.5C 64.531,79.2485 65.6976,79.9152 67,80.5C 67.6667,82.8333 67.6667,85.1667 67,87.5C 61.7935,91.8421 55.9602,92.6754 49.5,90C 45.2282,87.9668 43.8948,84.8001 45.5,80.5C 49.4508,76.9383 54.1174,75.605 59.5,76.5 Z"/></g>
<g><path style="opacity:1" fill="#d43807" d="M 94.5,79.5 C 92.1587,81.8288 89.4921,83.8288 86.5,85.5C 84.1837,83.6039 81.8503,81.6039 79.5,79.5C 79.9704,78.3065 80.9704,77.6399 82.5,77.5C 86.6776,77.9564 90.6776,78.6231 94.5,79.5 Z"/></g>
<g><path style="opacity:1" fill="#faaf57" d="M 113.5,79.5 C 118.339,79.2217 123.006,79.8884 127.5,81.5C 127.784,84.7766 127.451,87.9433 126.5,91C 121.498,93.4921 116.164,94.1588 110.5,93C 104.758,87.0524 105.758,82.5524 113.5,79.5 Z"/></g>
<g><path style="opacity:1" fill="#f5da6c" d="M 130.5,43.5 C 139.577,59.2012 143.577,76.2012 142.5,94.5C 143.833,94.5 145.167,94.5 146.5,94.5C 146.5,94.8333 146.5,95.1667 146.5,95.5C 144.167,95.5 141.833,95.5 139.5,95.5C 139.631,94.7611 139.464,94.0944 139,93.5C 137.512,94.1958 136.012,93.8625 134.5,92.5C 135.274,91.2888 136.107,91.2888 137,92.5C 137.667,91.8333 138.333,91.1667 139,90.5C 140.99,74.5409 137.823,59.8743 129.5,46.5C 129.263,45.209 129.596,44.209 130.5,43.5 Z"/></g>
<g><path style="opacity:1" fill="#f8a40c" d="M 28.5,99.5 C 28.8226,103.226 28.4892,106.893 27.5,110.5C 24.2545,109.26 22.5879,106.927 22.5,103.5C 23.5,103.5 24.5,103.5 25.5,103.5C 24.5793,100.917 23.246,98.5837 21.5,96.5C 20.5655,95.4324 20.2322,94.099 20.5,92.5C 25.3386,92.5578 28.0053,94.8911 28.5,99.5 Z"/></g>
<g><path style="opacity:1" fill="#f7a615" d="M 152.5,100.5 C 152.047,101.458 151.381,102.292 150.5,103C 154.823,107.207 154.157,110.374 148.5,112.5C 146.833,112.5 145.167,112.5 143.5,112.5C 146.728,118.635 144.728,121.302 137.5,120.5C 140.121,113.136 141.788,105.469 142.5,97.5C 144.38,97.7709 145.713,97.1042 146.5,95.5C 146.5,95.1667 146.5,94.8333 146.5,94.5C 149.167,93.8333 151.833,93.1667 154.5,92.5C 154.416,95.3274 153.75,97.994 152.5,100.5 Z"/></g>
<g><path style="opacity:0.055" fill="#efbf60" d="M 152.5,100.5 C 153.75,97.994 154.416,95.3274 154.5,92.5C 151.833,93.1667 149.167,93.8333 146.5,94.5C 148.956,92.1324 151.956,91.1324 155.5,91.5C 156.075,95.1547 155.075,98.1547 152.5,100.5 Z"/></g>
<g><path style="opacity:1" fill="#fbe483" d="M 118.5,126.5 C 118.5,128.5 118.5,130.5 118.5,132.5C 118.586,133.496 118.252,134.329 117.5,135C 113.888,136.139 110.554,137.806 107.5,140C 92.0955,143.418 76.7622,143.084 61.5,139C 59.1209,138.284 57.1209,137.117 55.5,135.5C 56.5522,131.348 57.3855,127.015 58,122.5C 69.361,104.446 84.861,99.9457 104.5,109C 108.028,112.859 111.528,116.693 115,120.5C 115.424,123.025 116.59,125.025 118.5,126.5 Z"/></g>
<g><path style="opacity:1" fill="#fab42f" d="M 139.5,95.5 C 141.833,95.5 144.167,95.5 146.5,95.5C 145.713,97.1042 144.38,97.7709 142.5,97.5C 141.788,105.469 140.121,113.136 137.5,120.5C 134.891,123.725 132.724,127.392 131,131.5C 127.036,135.816 122.869,139.816 118.5,143.5C 117.957,143.44 117.624,143.107 117.5,142.5C 118.213,140.224 118.713,137.891 119,135.5C 120.085,134.264 120.918,132.931 121.5,131.5C 132.312,121.99 138.312,109.99 139.5,95.5 Z"/></g>
<g><path style="opacity:0.663" fill="#edc563" d="M 148.5,112.5 C 147.737,113.268 146.737,113.768 145.5,114C 148.319,116.72 147.986,119.053 144.5,121C 141.986,122.252 139.32,122.752 136.5,122.5C 132.719,136.07 124.052,144.737 110.5,148.5C 110.369,147.624 110.702,146.957 111.5,146.5C 113.885,145.339 116.219,144.339 118.5,143.5C 122.869,139.816 127.036,135.816 131,131.5C 132.724,127.392 134.891,123.725 137.5,120.5C 144.728,121.302 146.728,118.635 143.5,112.5C 145.167,112.5 146.833,112.5 148.5,112.5 Z"/></g>
<g><path style="opacity:1" fill="#f8ba42" d="M 21.5,96.5 C 23.246,98.5837 24.5793,100.917 25.5,103.5C 24.5,103.5 23.5,103.5 22.5,103.5C 22.5879,106.927 24.2545,109.26 27.5,110.5C 28.4892,106.893 28.8226,103.226 28.5,99.5C 30.8358,105.854 33.5025,112.188 36.5,118.5C 41.2871,125.957 47.6204,131.624 55.5,135.5C 57.1209,137.117 59.1209,138.284 61.5,139C 76.7622,143.084 92.0955,143.418 107.5,140C 110.554,137.806 113.888,136.139 117.5,135C 118.252,134.329 118.586,133.496 118.5,132.5C 119.609,132.443 120.609,132.11 121.5,131.5C 120.918,132.931 120.085,134.264 119,135.5C 118.713,137.891 118.213,140.224 117.5,142.5C 117.624,143.107 117.957,143.44 118.5,143.5C 116.219,144.339 113.885,145.339 111.5,146.5C 110.702,146.957 110.369,147.624 110.5,148.5C 110.5,149.167 110.167,149.5 109.5,149.5C 108.726,148.853 107.726,148.52 106.5,148.5C 93.345,150.102 80.345,150.769 67.5,150.5C 67.1667,150.5 66.8333,150.5 66.5,150.5C 65.4324,149.566 64.099,149.232 62.5,149.5C 62.1667,149.5 61.8333,149.5 61.5,149.5C 50.5093,147.083 42.0093,141.083 36,131.5C 33.8444,127.189 31.6778,122.856 29.5,118.5C 28.2638,117.754 26.9305,117.421 25.5,117.5C 25.5,115.167 25.5,112.833 25.5,110.5C 23.0885,110.863 21.5885,109.863 21,107.5C 20.5702,104.808 20.7369,102.141 21.5,99.5C 21.5,98.5 21.5,97.5 21.5,96.5 Z"/></g>
<g><path style="opacity:0.788" fill="#f1c567" d="M 109.5,149.5 C 107.784,149.629 106.117,149.962 104.5,150.5C 102.585,150.216 100.919,150.549 99.5,151.5C 89.1779,152.776 78.8445,152.776 68.5,151.5C 68.5,152.833 68.5,154.167 68.5,155.5C 67.5489,154.081 67.2155,152.415 67.5,150.5C 80.345,150.769 93.345,150.102 106.5,148.5C 107.726,148.52 108.726,148.853 109.5,149.5 Z"/></g>
<g><path style="opacity:1" fill="#e25417" d="M 104.5,150.5 C 105.207,153.786 105.54,157.119 105.5,160.5C 109.689,161.221 113.355,162.887 116.5,165.5C 116.389,166.117 116.056,166.617 115.5,167C 113.527,167.495 111.527,167.662 109.5,167.5C 109.5,168.833 109.5,170.167 109.5,171.5C 108.448,171.649 107.448,171.483 106.5,171C 105.32,169.104 103.82,167.604 102,166.5C 99.315,168.26 96.4816,169.594 93.5,170.5C 93.366,168.708 93.6993,167.042 94.5,165.5C 95.7927,163.704 97.2927,162.037 99,160.5C 99.498,157.518 99.6646,154.518 99.5,151.5C 100.919,150.549 102.585,150.216 104.5,150.5 Z"/></g>
<g><path style="opacity:1" fill="#eb4d04" d="M 62.5,149.5 C 64.099,149.232 65.4324,149.566 66.5,150.5C 66.2338,154.605 66.7338,158.605 68,162.5C 69.0736,163.618 70.2402,164.618 71.5,165.5C 69.8068,166.228 68.3068,167.228 67,168.5C 65.1667,167.333 63.3333,166.167 61.5,165C 62.4714,159.928 62.8047,154.762 62.5,149.5 Z"/></g>
<g><path style="opacity:1" fill="#dd5c22" d="M 61.5,149.5 C 61.8333,149.5 62.1667,149.5 62.5,149.5C 62.8047,154.762 62.4714,159.928 61.5,165C 63.3333,166.167 65.1667,167.333 67,168.5C 68.3068,167.228 69.8068,166.228 71.5,165.5C 70.2402,164.618 69.0736,163.618 68,162.5C 66.7338,158.605 66.2338,154.605 66.5,150.5C 66.8333,150.5 67.1667,150.5 67.5,150.5C 67.2155,152.415 67.5489,154.081 68.5,155.5C 68.2011,157.604 68.5344,159.604 69.5,161.5C 71.4192,162.612 73.0858,163.946 74.5,165.5C 75.9418,166.82 76.6085,168.486 76.5,170.5C 73.9512,170.613 71.6179,169.946 69.5,168.5C 68.7189,169.729 68.2189,171.062 68,172.5C 66.2859,173.925 64.9525,173.592 64,171.5C 63.51,170.207 63.3433,168.873 63.5,167.5C 60.1667,168.5 56.8333,169.5 53.5,170.5C 53.5,168.833 53.5,167.167 53.5,165.5C 56.0255,164.319 58.5255,162.986 61,161.5C 61.4988,157.514 61.6655,153.514 61.5,149.5 Z"/></g>
<g><path style="opacity:1" fill="#efd2a7" d="M 94.5,165.5 C 93.6993,167.042 93.366,168.708 93.5,170.5C 96.4816,169.594 99.315,168.26 102,166.5C 103.82,167.604 105.32,169.104 106.5,171C 107.448,171.483 108.448,171.649 109.5,171.5C 109.5,170.167 109.5,168.833 109.5,167.5C 111.527,167.662 113.527,167.495 115.5,167C 116.056,166.617 116.389,166.117 116.5,165.5C 124.469,165.969 132.136,167.635 139.5,170.5C 140.429,171.689 140.762,173.022 140.5,174.5C 130.531,176.992 120.531,178.659 110.5,179.5C 93.8333,179.5 77.1667,179.5 60.5,179.5C 50.4314,178.933 40.4314,177.266 30.5,174.5C 29.9648,171.762 30.9648,169.928 33.5,169C 40.1208,167.507 46.7874,166.34 53.5,165.5C 53.5,167.167 53.5,168.833 53.5,170.5C 56.8333,169.5 60.1667,168.5 63.5,167.5C 63.3433,168.873 63.51,170.207 64,171.5C 64.9525,173.592 66.2859,173.925 68,172.5C 68.2189,171.062 68.7189,169.729 69.5,168.5C 71.6179,169.946 73.9512,170.613 76.5,170.5C 76.6085,168.486 75.9418,166.82 74.5,165.5C 81.1667,164.167 87.8333,164.167 94.5,165.5 Z"/></g>
</svg>
