<?xml version="1.0" encoding="UTF-8"?>
<!DOCTYPE svg PUBLIC "-//W3C//DTD SVG 1.1//EN" "http://www.w3.org/Graphics/SVG/1.1/DTD/svg11.dtd">
<svg xmlns="http://www.w3.org/2000/svg" version="1.1" width="32px" height="32px" style="shape-rendering:geometricPrecision; text-rendering:geometricPrecision; image-rendering:optimizeQuality; fill-rule:evenodd; clip-rule:evenodd" xmlns:xlink="http://www.w3.org/1999/xlink">
<g><path style="opacity:1" fill="#f7d756" d="M 13.5,-0.5 C 14.8333,-0.5 16.1667,-0.5 17.5,-0.5C 18.5981,0.396953 18.5981,1.23029 17.5,2C 22.8534,4.86881 25.52,9.36881 25.5,15.5C 24.8325,18.844 23.1658,21.5106 20.5,23.5C 20.7271,21.0672 19.7271,19.4006 17.5,18.5C 18.9025,17.0688 20.5692,15.9022 22.5,15C 21.7562,13.9614 20.7562,13.4614 19.5,13.5C 19.5,12.1667 18.8333,11.5 17.5,11.5C 17.5654,11.0618 17.3988,10.7284 17,10.5C 15.4301,11.614 14.0968,12.9474 13,14.5C 12.6012,14.2716 12.4346,13.9382 12.5,13.5C 12.5,12.1667 11.8333,11.5 10.5,11.5C 10.6495,10.448 10.4828,9.44802 10,8.5C 9,9.83333 8,9.83333 7,8.5C 6.24316,10.3146 5.40982,11.9812 4.5,13.5C 4.37201,11.3453 4.87201,9.34528 6,7.5C 8.96077,5.1385 11.4608,2.47183 13.5,-0.5 Z"/></g>
<g><path style="opacity:0.999" fill="#fad253" d="M 10.5,11.5 C 9.99346,12.8589 8.99346,13.8589 7.5,14.5C 9.46695,15.6838 11.1336,15.3505 12.5,13.5C 12.4346,13.9382 12.6012,14.2716 13,14.5C 14.0968,12.9474 15.4301,11.614 17,10.5C 17.3988,10.7284 17.5654,11.0618 17.5,11.5C 18.8333,11.5 19.5,12.1667 19.5,13.5C 20.7562,13.4614 21.7562,13.9614 22.5,15C 20.5692,15.9022 18.9025,17.0688 17.5,18.5C 13.1381,17.672 10.4715,19.3387 9.5,23.5C 6.36802,21.7969 4.70136,19.1302 4.5,15.5C 4.5,14.8333 4.5,14.1667 4.5,13.5C 5.40982,11.9812 6.24316,10.3146 7,8.5C 8,9.83333 9,9.83333 10,8.5C 10.4828,9.44802 10.6495,10.448 10.5,11.5 Z"/></g>
<g><path style="opacity:1" fill="#654d2d" d="M 17.5,11.5 C 18.8333,11.5 19.5,12.1667 19.5,13.5C 18.1667,13.5 17.5,12.8333 17.5,11.5 Z"/></g>
<g><path style="opacity:1" fill="#dc9f4f" d="M 10.5,11.5 C 11.8333,11.5 12.5,12.1667 12.5,13.5C 11.1336,15.3505 9.46695,15.6838 7.5,14.5C 8.99346,13.8589 9.99346,12.8589 10.5,11.5 Z"/></g>
<g><path style="opacity:0.937" fill="#f6b73e" d="M 4.5,15.5 C 4.70136,19.1302 6.36802,21.7969 9.5,23.5C 13.0649,24.7866 16.7316,24.7866 20.5,23.5C 23.1658,21.5106 24.8325,18.844 25.5,15.5C 27.8398,16.5718 28.1731,18.2385 26.5,20.5C 24.6385,21.5283 23.3052,23.0283 22.5,25C 21.255,25.7914 19.9217,26.2914 18.5,26.5C 17.5084,26.3284 16.8417,26.6618 16.5,27.5C 15.5,27.5 14.5,27.5 13.5,27.5C 12.791,26.596 11.791,26.2627 10.5,26.5C 6.69434,24.5846 4.02767,21.5846 2.5,17.5C 2.74716,16.2867 3.41383,15.62 4.5,15.5 Z"/></g>
<g><path style="opacity:1" fill="#fbe481" d="M 17.5,18.5 C 19.7271,19.4006 20.7271,21.0672 20.5,23.5C 16.7316,24.7866 13.0649,24.7866 9.5,23.5C 10.4715,19.3387 13.1381,17.672 17.5,18.5 Z"/></g>
<g><path style="opacity:0.996" fill="#e7541b" d="M 10.5,26.5 C 11.791,26.2627 12.791,26.596 13.5,27.5C 12.8333,27.5 12.5,27.8333 12.5,28.5C 11.5,29.8333 10.5,29.8333 9.5,28.5C 10.3382,28.1583 10.6716,27.4916 10.5,26.5 Z"/></g>
<g><path style="opacity:0.788" fill="#eeca9e" d="M 9.5,28.5 C 10.5,29.8333 11.5,29.8333 12.5,28.5C 13.8333,28.5 15.1667,28.5 16.5,28.5C 17.8333,29.8333 19.1667,29.8333 20.5,28.5C 22.632,28.5544 23.9653,29.5544 24.5,31.5C 18.1667,31.5 11.8333,31.5 5.5,31.5C 5.38929,30.8826 5.05596,30.3826 4.5,30C 6.02494,28.9914 7.69161,28.4914 9.5,28.5 Z"/></g>
<g><path style="opacity:1" fill="#de5b1d" d="M 18.5,26.5 C 18.8333,27.5 19.5,28.1667 20.5,28.5C 19.1667,29.8333 17.8333,29.8333 16.5,28.5C 16.5,28.1667 16.5,27.8333 16.5,27.5C 16.8417,26.6618 17.5084,26.3284 18.5,26.5 Z"/></g>
</svg>
