<?xml version="1.0" encoding="UTF-8"?>
<!DOCTYPE svg PUBLIC "-//W3C//DTD SVG 1.1//EN" "http://www.w3.org/Graphics/SVG/1.1/DTD/svg11.dtd">
<svg xmlns="http://www.w3.org/2000/svg" version="1.1" width="150px" height="150px" style="shape-rendering:geometricPrecision; text-rendering:geometricPrecision; image-rendering:optimizeQuality; fill-rule:evenodd; clip-rule:evenodd" xmlns:xlink="http://www.w3.org/1999/xlink">
<g><path style="opacity:0.902" fill="#f2c54e" d="M 76.5,-0.5 C 78.5,-0.5 80.5,-0.5 82.5,-0.5C 81.9524,1.39362 80.9524,3.06028 79.5,4.5C 82.0436,4.94913 84.7102,4.94913 87.5,4.5C 85.6354,9.03738 82.6354,12.7041 78.5,15.5C 77.8333,15.5 77.1667,15.5 76.5,15.5C 72.5,16.8333 68.5,16.8333 64.5,15.5C 63.3046,11.2133 63.3046,6.88 64.5,2.5C 65.5,2.5 66.5,2.5 67.5,2.5C 67.6785,5.2165 68.1785,7.88317 69,10.5C 69.7639,5.58239 72.2639,1.91572 76.5,-0.5 Z"/></g>
<g><path style="opacity:0.651" fill="#f2de80" d="M 76.5,15.5 C 77.1667,15.5 77.8333,15.5 78.5,15.5C 88.096,16.1593 95.7627,20.1593 101.5,27.5C 97.9135,24.4286 93.9135,21.9286 89.5,20C 84.7725,18.9229 80.4392,17.4229 76.5,15.5 Z"/></g>
<g><path style="opacity:0.659" fill="#f1dd80" d="M 64.5,15.5 C 58.2344,18.9581 51.5677,21.9581 44.5,24.5C 50.4002,19.9703 57.0668,16.9703 64.5,15.5 Z"/></g>
<g><path style="opacity:1" fill="#fadb56" d="M 64.5,15.5 C 68.5,16.8333 72.5,16.8333 76.5,15.5C 80.4392,17.4229 84.7725,18.9229 89.5,20C 93.9135,21.9286 97.9135,24.4286 101.5,27.5C 104.714,31.9836 106.88,36.9836 108,42.5C 111.134,45.7886 113.634,49.4553 115.5,53.5C 115.5,54.8333 115.5,56.1667 115.5,57.5C 114.732,56.7375 114.232,55.7375 114,54.5C 113.667,57.1667 113.333,59.8333 113,62.5C 111.383,61.4642 111.216,60.2975 112.5,59C 108.297,58.6971 106.963,56.6971 108.5,53C 108.012,51.416 107.012,50.2494 105.5,49.5C 105.262,46.8812 105.595,44.2145 106.5,41.5C 105.167,41.5 103.833,41.5 102.5,41.5C 102.714,43.1439 102.38,44.6439 101.5,46C 102.167,46.6667 102.833,47.3333 103.5,48C 101.376,49.1217 99.5429,50.6217 98,52.5C 97.5172,51.552 97.3505,50.552 97.5,49.5C 93.3482,49.6308 92.6815,51.1308 95.5,54C 97.0249,55.0086 98.6916,55.5086 100.5,55.5C 100.799,57.604 100.466,59.604 99.5,61.5C 98.7189,60.2713 98.2189,58.938 98,57.5C 97.9964,60.7916 96.8297,63.4582 94.5,65.5C 91.2842,66.0649 88.9509,67.7316 87.5,70.5C 86.5714,71.9361 85.4048,73.2695 84,74.5C 82.271,71.9211 80.4377,71.9211 78.5,74.5C 75.4197,72.8953 72.9197,73.562 71,76.5C 70.323,74.311 69.1563,73.9776 67.5,75.5C 65.5745,72.828 62.9079,71.828 59.5,72.5C 59.1667,74.5 58.8333,76.5 58.5,78.5C 56.2662,79.7036 53.9329,80.8703 51.5,82C 47.1667,82.6667 42.8333,82.6667 38.5,82C 40.2556,81.7978 41.9223,81.2978 43.5,80.5C 42.1062,79.3131 42.2729,78.6465 44,78.5C 45.9317,80.1779 48.0983,80.6779 50.5,80C 49.6919,79.6924 49.0253,79.1924 48.5,78.5C 51.8673,77.8233 54.534,76.1567 56.5,73.5C 56.986,66.8171 53.8193,63.4837 47,63.5C 44.813,63.7885 42.6463,64.1218 40.5,64.5C 39.1667,64.5 37.8333,64.5 36.5,64.5C 36.4208,63.0695 36.7542,61.7362 37.5,60.5C 39.7427,59.5258 42.076,59.1924 44.5,59.5C 44.9577,56.6062 44.291,54.1062 42.5,52C 44.9316,50.9125 44.5983,50.4125 41.5,50.5C 41.5,49.1667 41.5,47.8333 41.5,46.5C 38.8704,45.5722 36.2037,44.5722 33.5,43.5C 33.1373,42.8165 32.8039,42.1499 32.5,41.5C 35.1672,35.5053 38.8339,30.172 43.5,25.5C 43.5,24.8333 43.8333,24.5 44.5,24.5C 51.5677,21.9581 58.2344,18.9581 64.5,15.5 Z"/></g>
<g><path style="opacity:0.835" fill="#f0de81" d="M 43.5,25.5 C 38.8339,30.172 35.1672,35.5053 32.5,41.5C 30.1618,45.5366 27.8285,49.5366 25.5,53.5C 27.7407,45.0187 31.574,37.352 37,30.5C 38.7772,28.2101 40.9438,26.5434 43.5,25.5 Z"/></g>
<g><path style="opacity:1" fill="#f3db6f" d="M 101.5,27.5 C 108.763,34.687 113.429,43.3536 115.5,53.5C 113.634,49.4553 111.134,45.7886 108,42.5C 106.88,36.9836 104.714,31.9836 101.5,27.5 Z"/></g>
<g><path style="opacity:1" fill="#fbda55" d="M 32.5,41.5 C 32.8039,42.1499 33.1373,42.8165 33.5,43.5C 36.2037,44.5722 38.8704,45.5722 41.5,46.5C 41.5,47.8333 41.5,49.1667 41.5,50.5C 44.5983,50.4125 44.9316,50.9125 42.5,52C 44.291,54.1062 44.9577,56.6062 44.5,59.5C 42.076,59.1924 39.7427,59.5258 37.5,60.5C 36.7542,61.7362 36.4208,63.0695 36.5,64.5C 37.8333,64.5 39.1667,64.5 40.5,64.5C 36.2902,68.6458 36.6235,72.4792 41.5,76C 44.8333,76.6667 48.1667,76.6667 51.5,76C 52.9423,75.6232 53.9423,74.7899 54.5,73.5C 55.1667,73.5 55.8333,73.5 56.5,73.5C 54.534,76.1567 51.8673,77.8233 48.5,78.5C 49.0253,79.1924 49.6919,79.6924 50.5,80C 48.0983,80.6779 45.9317,80.1779 44,78.5C 42.2729,78.6465 42.1062,79.3131 43.5,80.5C 41.9223,81.2978 40.2556,81.7978 38.5,82C 42.8333,82.6667 47.1667,82.6667 51.5,82C 53.9329,80.8703 56.2662,79.7036 58.5,78.5C 58.8333,76.5 59.1667,74.5 59.5,72.5C 62.9079,71.828 65.5745,72.828 67.5,75.5C 69.1563,73.9776 70.323,74.311 71,76.5C 72.9197,73.562 75.4197,72.8953 78.5,74.5C 80.4377,71.9211 82.271,71.9211 84,74.5C 85.4048,73.2695 86.5714,71.9361 87.5,70.5C 87.423,73.5092 88.7563,75.6759 91.5,77C 96.5102,78.1246 101.177,77.4579 105.5,75C 106.833,72.6667 106.833,70.3333 105.5,68C 102.093,66.0651 98.4264,65.2318 94.5,65.5C 96.8297,63.4582 97.9964,60.7916 98,57.5C 98.2189,58.938 98.7189,60.2713 99.5,61.5C 100.466,59.604 100.799,57.604 100.5,55.5C 98.6916,55.5086 97.0249,55.0086 95.5,54C 92.6815,51.1308 93.3482,49.6308 97.5,49.5C 97.3505,50.552 97.5172,51.552 98,52.5C 99.5429,50.6217 101.376,49.1217 103.5,48C 102.833,47.3333 102.167,46.6667 101.5,46C 102.38,44.6439 102.714,43.1439 102.5,41.5C 103.833,41.5 105.167,41.5 106.5,41.5C 105.595,44.2145 105.262,46.8812 105.5,49.5C 107.012,50.2494 108.012,51.416 108.5,53C 106.963,56.6971 108.297,58.6971 112.5,59C 111.216,60.2975 111.383,61.4642 113,62.5C 113.333,59.8333 113.667,57.1667 114,54.5C 114.232,55.7375 114.732,56.7375 115.5,57.5C 116.302,58.9516 116.802,60.6183 117,62.5C 117.499,68.1569 117.666,73.8236 117.5,79.5C 116.549,80.9187 116.216,82.5853 116.5,84.5C 114.173,90.5994 111.34,96.5994 108,102.5C 105.274,105.767 102.108,108.434 98.5,110.5C 97.9435,105.332 96.2768,100.499 93.5,96C 88.0195,90.8588 81.5195,88.0255 74,87.5C 56.671,87 47.5043,95.3333 46.5,112.5C 33.151,105.471 25.4843,94.4712 23.5,79.5C 23.5,79.1667 23.5,78.8333 23.5,78.5C 24.4277,70.8597 25.0943,63.193 25.5,55.5C 25.5,54.8333 25.5,54.1667 25.5,53.5C 27.8285,49.5366 30.1618,45.5366 32.5,41.5 Z"/></g>
<g><path style="opacity:1" fill="#2a1b15" d="M 52.5,53.5 C 58.3462,51.8497 60.5129,54.183 59,60.5C 57.4843,63.0062 55.3176,63.8395 52.5,63C 51.7476,62.3292 51.4142,61.4959 51.5,60.5C 51.3398,58.8008 51.5065,57.1341 52,55.5C 53.1562,56.9928 53.9896,56.8261 54.5,55C 54.1639,53.9701 53.4972,53.4701 52.5,53.5 Z"/></g>
<g><path style="opacity:1" fill="#a19271" d="M 52.5,53.5 C 53.4972,53.4701 54.1639,53.9701 54.5,55C 53.9896,56.8261 53.1562,56.9928 52,55.5C 51.5065,57.1341 51.3398,58.8008 51.5,60.5C 50.8529,59.7261 50.5195,58.7261 50.5,57.5C 50.3402,55.6455 51.0069,54.3121 52.5,53.5 Z"/></g>
<g><path style="opacity:1" fill="#a09178" d="M 87.5,53.5 C 88.3007,55.0418 88.634,56.7085 88.5,58.5C 87.5,58.5 86.5,58.5 85.5,58.5C 85.5,59.5 85.5,60.5 85.5,61.5C 83.8161,58.282 84.4828,55.6154 87.5,53.5 Z"/></g>
<g><path style="opacity:1" fill="#2d1c15" d="M 87.5,53.5 C 93.6117,54.987 94.945,58.487 91.5,64C 89.8333,64.6667 88.1667,64.6667 86.5,64C 85.7476,63.3292 85.4142,62.4959 85.5,61.5C 85.5,60.5 85.5,59.5 85.5,58.5C 86.5,58.5 87.5,58.5 88.5,58.5C 88.634,56.7085 88.3007,55.0418 87.5,53.5 Z"/></g>
<g><path style="opacity:1" fill="#f67f15" d="M 78.5,64.5 C 74.0293,63.9106 70.0293,64.5772 66.5,66.5C 65.9982,62.6236 67.9982,60.2902 72.5,59.5C 75.1018,60.4344 77.1018,62.1011 78.5,64.5 Z"/></g>
<g><path style="opacity:1" fill="#d9400a" d="M 78.5,64.5 C 79.525,64.8966 79.6917,65.5632 79,66.5C 76.656,68.1813 74.3227,69.848 72,71.5C 70.317,69.6495 68.4837,67.9828 66.5,66.5C 70.0293,64.5772 74.0293,63.9106 78.5,64.5 Z"/></g>
<g><path style="opacity:1" fill="#f9b950" d="M 56.5,73.5 C 55.8333,73.5 55.1667,73.5 54.5,73.5C 53.9423,74.7899 52.9423,75.6232 51.5,76C 48.1667,76.6667 44.8333,76.6667 41.5,76C 36.6235,72.4792 36.2902,68.6458 40.5,64.5C 42.6463,64.1218 44.813,63.7885 47,63.5C 53.8193,63.4837 56.986,66.8171 56.5,73.5 Z"/></g>
<g><path style="opacity:1" fill="#fbad59" d="M 54.5,73.5 C 49.4908,75.1146 44.6575,74.7813 40,72.5C 39.3333,70.8333 39.3333,69.1667 40,67.5C 43.8066,64.2741 47.9733,63.7741 52.5,66C 54.1134,68.2276 54.78,70.7276 54.5,73.5 Z"/></g>
<g><path style="opacity:1" fill="#fab257" d="M 94.5,65.5 C 98.4264,65.2318 102.093,66.0651 105.5,68C 106.833,70.3333 106.833,72.6667 105.5,75C 101.177,77.4579 96.5102,78.1246 91.5,77C 88.7563,75.6759 87.423,73.5092 87.5,70.5C 88.9509,67.7316 91.2842,66.0649 94.5,65.5 Z"/></g>
<g><path style="opacity:0.59" fill="#f1db7e" d="M 25.5,55.5 C 25.0943,63.193 24.4277,70.8597 23.5,78.5C 23.1667,78.5 22.8333,78.5 22.5,78.5C 22.5,78.1667 22.5,77.8333 22.5,77.5C 22.2119,69.855 23.2119,62.5216 25.5,55.5 Z"/></g>
<g><path style="opacity:0.355" fill="#f2dd89" d="M 115.5,53.5 C 117.702,61.7232 119.369,70.0565 120.5,78.5C 119.791,79.404 118.791,79.7373 117.5,79.5C 117.666,73.8236 117.499,68.1569 117,62.5C 116.802,60.6183 116.302,58.9516 115.5,57.5C 115.5,56.1667 115.5,54.8333 115.5,53.5 Z"/></g>
<g><path style="opacity:1" fill="#f8a50e" d="M 22.5,78.5 C 22.8333,78.5 23.1667,78.5 23.5,78.5C 23.5,78.8333 23.5,79.1667 23.5,79.5C 23.6655,83.5138 23.4988,87.5138 23,91.5C 18.6938,90.7511 17.5271,88.4178 19.5,84.5C 18.5331,82.2383 17.8664,79.905 17.5,77.5C 19.2161,77.6287 20.8828,77.962 22.5,78.5 Z"/></g>
<g><path style="opacity:0.827" fill="#ecb33d" d="M 127.5,83.5 C 127.5,81.8333 127.5,80.1667 127.5,78.5C 124.211,79.3739 120.877,80.0405 117.5,80.5C 117.768,82.099 117.434,83.4324 116.5,84.5C 116.216,82.5853 116.549,80.9187 117.5,79.5C 118.791,79.7373 119.791,79.404 120.5,78.5C 123.009,76.9401 125.676,76.1068 128.5,76C 129.907,78.7848 129.574,81.2848 127.5,83.5 Z"/></g>
<g><path style="opacity:1" fill="#faa60f" d="M 127.5,83.5 C 127.167,84.5 126.5,85.1667 125.5,85.5C 125.39,87.3541 125.057,89.3541 124.5,91.5C 123.476,92.8532 122.143,93.5198 120.5,93.5C 120.973,98.0234 118.973,100.357 114.5,100.5C 115.33,95.1925 115.997,89.8592 116.5,84.5C 117.434,83.4324 117.768,82.099 117.5,80.5C 120.877,80.0405 124.211,79.3739 127.5,78.5C 127.5,80.1667 127.5,81.8333 127.5,83.5 Z"/></g>
<g><path style="opacity:1" fill="#fbe482" d="M 98.5,110.5 C 95.0054,114.119 90.672,116.286 85.5,117C 77.2267,118.33 68.8933,118.83 60.5,118.5C 56.0552,116.461 51.3885,114.794 46.5,113.5C 46.5,113.167 46.5,112.833 46.5,112.5C 47.5043,95.3333 56.671,87 74,87.5C 81.5195,88.0255 88.0195,90.8588 93.5,96C 96.2768,100.499 97.9435,105.332 98.5,110.5 Z"/></g>
<g><path style="opacity:0.314" fill="#e9ba5a" d="M 21.5,92.5 C 22.2389,92.369 22.9056,92.5357 23.5,93C 21.9794,96.0166 22.9794,97.85 26.5,98.5C 30.4241,106.021 35.0908,113.021 40.5,119.5C 37.2689,117.78 34.4356,115.447 32,112.5C 29.4123,108.326 27.079,103.993 25,99.5C 21.2124,98.2671 20.0458,95.9338 21.5,92.5 Z"/></g>
<g><path style="opacity:1" fill="#f9b433" d="M 22.5,77.5 C 22.5,77.8333 22.5,78.1667 22.5,78.5C 20.8828,77.962 19.2161,77.6287 17.5,77.5C 17.8664,79.905 18.5331,82.2383 19.5,84.5C 17.5271,88.4178 18.6938,90.7511 23,91.5C 23.4988,87.5138 23.6655,83.5138 23.5,79.5C 25.4843,94.4712 33.151,105.471 46.5,112.5C 46.5,112.833 46.5,113.167 46.5,113.5C 46.0833,116.079 46.75,118.246 48.5,120C 46.1902,120.497 43.8568,120.663 41.5,120.5C 40.8333,120.5 40.5,120.167 40.5,119.5C 35.0908,113.021 30.4241,106.021 26.5,98.5C 22.9794,97.85 21.9794,96.0166 23.5,93C 22.9056,92.5357 22.2389,92.369 21.5,92.5C 16.4209,90.9987 15.4209,88.1654 18.5,84C 15.0715,80.8391 15.0715,78.0058 18.5,75.5C 20.0729,75.7517 21.4062,76.4183 22.5,77.5 Z"/></g>
<g><path style="opacity:1" fill="#f7bb45" d="M 116.5,84.5 C 115.997,89.8592 115.33,95.1925 114.5,100.5C 118.973,100.357 120.973,98.0234 120.5,93.5C 122.143,93.5198 123.476,92.8532 124.5,91.5C 125.057,89.3541 125.39,87.3541 125.5,85.5C 129.054,88.8921 128.387,91.8921 123.5,94.5C 123.031,99.9675 120.031,102.634 114.5,102.5C 111.933,110.006 107.267,115.673 100.5,119.5C 97.128,120.449 93.7947,120.449 90.5,119.5C 84.9385,123.793 78.6052,125.46 71.5,124.5C 65.1376,124.365 58.8042,123.865 52.5,123C 51.6548,121.442 52.3215,120.442 54.5,120C 51.7215,119.851 51.2215,119.017 53,117.5C 55.3806,118.435 57.8806,118.768 60.5,118.5C 68.8933,118.83 77.2267,118.33 85.5,117C 90.672,116.286 95.0054,114.119 98.5,110.5C 102.108,108.434 105.274,105.767 108,102.5C 111.34,96.5994 114.173,90.5994 116.5,84.5 Z"/></g>
<g><path style="opacity:1" fill="#f4bf56" d="M 46.5,113.5 C 51.3885,114.794 56.0552,116.461 60.5,118.5C 57.8806,118.768 55.3806,118.435 53,117.5C 51.2215,119.017 51.7215,119.851 54.5,120C 52.3215,120.442 51.6548,121.442 52.5,123C 58.8042,123.865 65.1376,124.365 71.5,124.5C 78.6052,125.46 84.9385,123.793 90.5,119.5C 93.7947,120.449 97.128,120.449 100.5,119.5C 96.7886,122.636 92.4553,124.636 87.5,125.5C 87.1667,125.5 86.8333,125.5 86.5,125.5C 85.5,124.167 84.5,124.167 83.5,125.5C 82.8333,125.5 82.5,125.833 82.5,126.5C 73.7245,128.003 65.0579,127.67 56.5,125.5C 54.9582,124.699 53.2915,124.366 51.5,124.5C 51.1667,124.5 50.8333,124.5 50.5,124.5C 47.0884,123.925 44.0884,122.592 41.5,120.5C 43.8568,120.663 46.1902,120.497 48.5,120C 46.75,118.246 46.0833,116.079 46.5,113.5 Z"/></g>
<g><path style="opacity:0.067" fill="#ce8355" d="M 50.5,124.5 C 50.8333,124.5 51.1667,124.5 51.5,124.5C 52.0803,128.649 51.4136,132.316 49.5,135.5C 50.4227,131.936 50.756,128.269 50.5,124.5 Z"/></g>
<g><path style="opacity:0.412" fill="#ce6731" d="M 86.5,125.5 C 86.8333,125.5 87.1667,125.5 87.5,125.5C 87.3367,127.857 87.5034,130.19 88,132.5C 91.1943,133.714 94.0276,135.38 96.5,137.5C 95.4479,139.256 93.7812,139.923 91.5,139.5C 91.7373,140.791 91.404,141.791 90.5,142.5C 90.5,141.167 90.5,139.833 90.5,138.5C 92.1992,138.66 93.8659,138.494 95.5,138C 92.5234,136.682 89.6901,135.182 87,133.5C 86.5026,130.854 86.3359,128.187 86.5,125.5 Z"/></g>
<g><path style="opacity:0.999" fill="#e05112" d="M 51.5,124.5 C 53.2915,124.366 54.9582,124.699 56.5,125.5C 55.3536,131.208 57.3536,135.208 62.5,137.5C 63.2341,138.708 63.5674,140.041 63.5,141.5C 61.1727,141.753 59.1727,141.086 57.5,139.5C 56.5481,141.045 56.2148,142.712 56.5,144.5C 55.5,144.5 54.5,144.5 53.5,144.5C 52.9486,139.035 50.4486,138.035 46,141.5C 45.5,141.167 45,140.833 44.5,140.5C 45.1925,139.482 45.8592,138.482 46.5,137.5C 47.2905,136.599 48.2905,135.932 49.5,135.5C 51.4136,132.316 52.0803,128.649 51.5,124.5 Z"/></g>
<g><path style="opacity:0.318" fill="#c66737" d="M 83.5,125.5 C 84.7605,131.139 83.0939,135.472 78.5,138.5C 78.5,138.167 78.5,137.833 78.5,137.5C 82.0083,134.717 83.3417,131.051 82.5,126.5C 82.5,125.833 82.8333,125.5 83.5,125.5 Z"/></g>
<g><path style="opacity:1" fill="#e5510d" d="M 86.5,125.5 C 86.3359,128.187 86.5026,130.854 87,133.5C 89.6901,135.182 92.5234,136.682 95.5,138C 93.8659,138.494 92.1992,138.66 90.5,138.5C 90.5,139.833 90.5,141.167 90.5,142.5C 88.2647,141.771 86.4314,140.438 85,138.5C 83.1397,140.201 80.973,141.201 78.5,141.5C 78.5,140.5 78.5,139.5 78.5,138.5C 83.0939,135.472 84.7605,131.139 83.5,125.5C 84.5,124.167 85.5,124.167 86.5,125.5 Z"/></g>
<g><path style="opacity:1" fill="#f0cfa3" d="M 46.5,137.5 C 45.8592,138.482 45.1925,139.482 44.5,140.5C 45,140.833 45.5,141.167 46,141.5C 50.4486,138.035 52.9486,139.035 53.5,144.5C 54.5,144.5 55.5,144.5 56.5,144.5C 56.2148,142.712 56.5481,141.045 57.5,139.5C 59.1727,141.086 61.1727,141.753 63.5,141.5C 63.5674,140.041 63.2341,138.708 62.5,137.5C 67.8333,137.5 73.1667,137.5 78.5,137.5C 78.5,137.833 78.5,138.167 78.5,138.5C 78.5,139.5 78.5,140.5 78.5,141.5C 80.973,141.201 83.1397,140.201 85,138.5C 86.4314,140.438 88.2647,141.771 90.5,142.5C 91.404,141.791 91.7373,140.791 91.5,139.5C 93.7812,139.923 95.4479,139.256 96.5,137.5C 102.858,138.265 109.191,139.432 115.5,141C 118.183,143.122 117.85,144.622 114.5,145.5C 94.624,146.75 74.7907,147.75 55,148.5C 46.6528,146.479 38.1528,145.146 29.5,144.5C 29.5,143.5 29.5,142.5 29.5,141.5C 33.8179,141.303 37.9845,141.303 42,141.5C 42.4828,140.552 42.6495,139.552 42.5,138.5C 43.8333,138.167 45.1667,137.833 46.5,137.5 Z"/></g>
<g><path style="opacity:0.23" fill="#e9d6af" d="M 42.5,138.5 C 42.6495,139.552 42.4828,140.552 42,141.5C 37.9845,141.303 33.8179,141.303 29.5,141.5C 29.5,142.5 29.5,143.5 29.5,144.5C 38.1528,145.146 46.6528,146.479 55,148.5C 74.7907,147.75 94.624,146.75 114.5,145.5C 107.959,147.482 101.292,148.815 94.5,149.5C 78.5,149.5 62.5,149.5 46.5,149.5C 41.3213,148.607 35.988,147.774 30.5,147C 28.0031,146.588 26.0031,145.422 24.5,143.5C 24.9767,142.522 25.6433,141.689 26.5,141C 31.7297,139.454 37.0631,138.62 42.5,138.5 Z"/></g>
</svg>
